<svg width="10" height="11" viewBox="0 0 10 11" fill="none" xmlns="http://www.w3.org/2000/svg">
<g id="arrows">
<g id="arrow-1">
<path id="arrow-1_2" d="M9.80248 6.14446L5.45708 10.8058C5.39124 10.8764 5.31991 10.9265 5.2431 10.9562C5.16629 10.9854 5.08399 11 4.9962 11C4.90842 11 4.82612 10.9854 4.7493 10.9562C4.67249 10.9265 4.60116 10.8764 4.53533 10.8058L0.189921 6.14446C0.0692156 6.01498 0.00600996 5.85325 0.000303875 5.65926C-0.00496328 5.4648 0.0582424 5.29695 0.189921 5.1557C0.310627 5.01445 0.461399 4.94076 0.642238 4.93464C0.823516 4.92899 0.979995 4.99679 1.11167 5.13804L4.33781 8.59872L4.33781 0.70626C4.33781 0.506153 4.40079 0.338299 4.52677 0.202697C4.65318 0.0675656 4.80966 -4.36016e-07 4.9962 -4.36016e-07C5.18275 -4.36016e-07 5.33901 0.0675656 5.46498 0.202697C5.59139 0.338299 5.6546 0.506153 5.6546 0.70626L5.6546 8.59872L8.88073 5.13804C9.00143 5.00856 9.15506 4.94076 9.34161 4.93464C9.52815 4.92899 9.68177 4.99679 9.80248 5.13804C9.93416 5.26752 10 5.43232 10 5.63242C10 5.83253 9.93416 6.00321 9.80248 6.14446Z" fill="#022B41"/>
</g>
<g id="arrow-2">
<path id="arrow-2_2" d="M9.80248 6.14446L5.45708 10.8058C5.39124 10.8764 5.31991 10.9265 5.2431 10.9562C5.16629 10.9854 5.08399 11 4.9962 11C4.90842 11 4.82612 10.9854 4.7493 10.9562C4.67249 10.9265 4.60116 10.8764 4.53533 10.8058L0.189921 6.14446C0.0692156 6.01498 0.00600996 5.85325 0.000303875 5.65926C-0.00496328 5.4648 0.0582424 5.29695 0.189921 5.1557C0.310627 5.01445 0.461399 4.94076 0.642238 4.93464C0.823516 4.92899 0.979995 4.99679 1.11167 5.13804L4.33781 8.59872L4.33781 0.70626C4.33781 0.506153 4.40079 0.338299 4.52677 0.202697C4.65318 0.0675656 4.80966 -4.36016e-07 4.9962 -4.36016e-07C5.18275 -4.36016e-07 5.33901 0.0675656 5.46498 0.202697C5.59139 0.338299 5.6546 0.506153 5.6546 0.70626L5.6546 8.59872L8.88073 5.13804C9.00143 5.00856 9.15506 4.94076 9.34161 4.93464C9.52815 4.92899 9.68177 4.99679 9.80248 5.13804C9.93416 5.26752 10 5.43232 10 5.63242C10 5.83253 9.93416 6.00321 9.80248 6.14446Z" fill="#0795F9"/>
</g>
</g>
</svg>
