<svg width="31" height="35" viewBox="0 0 31 35" fill="none" xmlns="http://www.w3.org/2000/svg">
<line x1="0.5" y1="21.8535" x2="0.5" y2="1.85352" stroke="white"/>
<line y1="1.35352" x2="24" y2="1.35352" stroke="white"/>
<line x1="7.5" y1="7.85352" x2="7.5" y2="15.8535" stroke="white"/>
<path d="M8 8.35352H20" stroke="white"/>
<line x1="20.3536" y1="8.20707" x2="0.353554" y2="28.2071" stroke="white"/>
<line x1="0.5" y1="27.8535" x2="0.5" y2="34.8535" stroke="white"/>
<line x1="1" y1="34.3535" x2="23" y2="34.3535" stroke="white"/>
<path d="M22 15.3535L24.1858 16.0093C26.0048 16.5549 27.5764 17.7181 28.6298 19.2982V19.2982C29.5232 20.6384 30 22.213 30 23.8237V24.6088C30 25.7644 29.8137 26.9124 29.4483 28.0087L29.2006 28.7516C28.7426 30.1256 27.9106 31.3447 26.7979 32.2719L26.3693 32.6291C25.7917 33.1104 25.1604 33.5233 24.4879 33.8596L23.5 34.3535H21.5" stroke="white"/>
<line x1="0.674604" y1="21.4739" x2="7.6746" y2="15.4739" stroke="white"/>
<path d="M21.6465 15.5441L29.6465 7.5" stroke="white"/>
<path d="M23.6402 1.21332L30.3535 7.5" stroke="white"/>
<path d="M10 27.8535V27.8535C10.3201 28.1737 10.7544 28.3535 11.2071 28.3535H16H20.7929C21.2456 28.3535 21.6799 28.1737 22 27.8535V27.8535" stroke="white"/>
<path d="M22 27.8534L22.6229 27.2305C23.7538 26.0996 24.0714 24.3891 23.4219 22.9276V22.9276C22.8528 21.6471 21.6352 20.7748 20.2396 20.648L19.5554 20.5858C17.9499 20.4398 16.3715 21.0714 15.31 22.2847L10 28.3535L10.9999 28.3535" stroke="white"/>
<path d="M3.32677 7.21228C3.37854 7.65756 3.50921 8.09157 3.58437 8.53333C3.71308 9.28977 3.75661 10.054 3.80235 10.8187C3.82985 11.2786 3.85785 11.7384 3.86179 12.1992C3.86449 12.5153 3.85213 12.4476 3.8684 12.1629C3.92605 11.1541 4.15903 10.1769 4.15903 9.16083C4.15903 8.77993 4.16501 9.92275 4.15573 10.3035C4.12711 11.4769 3.83502 12.6013 3.43245 13.6986C3.2007 14.3304 2.9569 14.9575 2.72239 15.5877C2.60241 15.9102 2.43506 16.2538 2.43506 16.6049" stroke="white" stroke-width="3" stroke-linecap="round"/>
<path d="M2.79816 10.1722C2.79816 10.6484 2.79816 11.1246 2.79816 11.6008C2.79816 11.659 2.76029 11.8196 2.79816 11.7754C2.83846 11.7284 2.82311 11.6541 2.8346 11.5932C2.87288 11.3905 2.93148 11.0759 2.96212 10.8857C3.09592 10.0553 3.1534 9.22706 3.1534 8.38689C3.1534 8.26874 3.11866 8.62064 3.10179 8.73758C2.99383 9.48583 2.85178 10.229 2.73136 10.9753C2.6315 11.5942 2.53839 12.2141 2.45203 12.835C2.37876 13.3618 2.47258 12.7267 2.48542 12.6589C2.59241 12.0948 2.81453 11.534 2.81941 10.9556C2.82087 10.7826 2.82003 10.5879 2.74047 10.4288C2.62302 10.1939 2.50948 10.8117 2.50668 10.822C2.29173 11.6116 2.1933 12.4168 2.10134 13.2282C2.06531 13.5461 1.98371 13.8689 1.97837 14.1892C1.97566 14.3513 1.9779 14.5116 1.96319 14.6735C1.93076 15.0302 1.86545 15.3834 1.81441 15.7377C1.79831 15.8495 1.80285 16.032 1.75368 16.1385C1.70643 16.2409 1.69258 15.92 1.68385 15.8075C1.62577 15.0598 1.6971 14.3151 1.76886 13.5713C1.77443 13.5137 1.78929 13.3406 1.78404 13.3983C1.75499 13.7179 1.69504 14.0345 1.63071 14.3486C1.50771 14.9492 1.37578 15.5531 1.22537 16.1476C1.10819 16.6107 1.21323 15.1917 1.23448 14.7145C1.24723 14.4281 1.25954 14.1418 1.26636 13.8552C1.26818 13.7788 1.27077 13.7416 1.26332 13.8173C1.2442 14.0117 1.24875 14.0003 1.21474 14.2439C1.12008 14.9218 0.729 16.9367 0.809401 16.2569C0.845141 15.9547 0.912772 15.6517 0.968805 15.3536C1.16143 14.3291 1.34838 13.3032 1.46979 12.2673C1.56549 11.4507 1.60485 10.6382 1.56695 9.81698C1.55842 9.63205 1.55379 9.10626 1.46827 9.27045C1.34535 9.50645 1.32253 9.7371 1.32253 9.99612C1.32253 10.9705 1.27526 11.9405 1.24662 12.914C1.23255 13.3923 1.24055 13.8716 1.24055 14.3501C1.24055 14.5102 1.25206 14.0302 1.26181 13.8704C1.30815 13.1104 1.38511 12.3526 1.45765 11.5947C1.58463 10.268 1.79342 8.97456 2.0482 7.6673C2.17109 7.03678 2.27821 6.40335 2.23645 5.759C2.23214 5.69254 2.20524 5.49708 2.19698 5.56316C2.12751 6.11892 2.154 6.70251 2.1484 7.26044C2.13876 8.21969 2.13705 9.17958 2.1484 10.1388C2.15501 10.6974 2.15645 11.2618 2.21823 11.8179C2.22672 11.8943 2.22555 12.0772 2.27137 11.8725C2.49613 10.8686 2.60191 9.83394 2.64331 8.80742C2.67499 8.02188 2.71204 7.13824 2.53249 6.36018C2.50399 6.23671 2.4971 6.37149 2.48391 6.44216C2.45105 6.61816 2.34138 7.28272 2.32906 7.35456C2.19472 8.13787 2.04772 8.91839 1.89639 9.69856C1.82835 10.0493 1.79308 10.2203 1.73546 10.5457C1.72456 10.6073 1.70751 10.7934 1.7051 10.7309C1.68652 10.2478 1.78272 9.72595 1.80834 9.24616C1.86573 8.1714 1.9026 7.09157 1.85692 6.01556C1.85126 5.88228 1.84067 5.74923 1.82959 5.61629C1.82271 5.5337 1.8185 5.2965 1.78404 5.37187C1.71988 5.51223 1.73132 5.67603 1.70966 5.82883C1.64185 6.30712 1.63546 6.36217 1.56543 6.87179C1.48348 7.46822 1.39648 8.0639 1.31342 8.66016C1.2625 9.02576 1.243 9.1722 1.20412 9.5255C1.19471 9.61093 1.18764 9.69662 1.17831 9.78206C1.17448 9.81707 1.19556 9.90368 1.16464 9.88681C1.13131 9.86863 1.16161 9.81092 1.16161 9.77295C1.16161 9.59651 1.16981 9.20848 1.17224 9.06246C1.18371 8.3717 1.1859 7.68106 1.1859 6.99021C1.1859 6.34393 1.1382 4.40564 1.16009 5.05155C1.17607 5.52296 1.20693 5.99311 1.21323 6.46493C1.21632 6.69687 1.27778 6.45042 1.31342 6.34348C1.55667 5.61374 1.76801 4.86943 1.94497 4.12093C2.03409 3.74394 2.11008 3.36351 2.1484 2.97777C2.1641 2.81971 2.19009 2.63286 2.14081 2.47678C2.06047 2.22239 2.01569 2.54487 2.00569 2.63771C1.93087 3.33247 1.93174 4.04852 1.95711 4.7464C1.96062 4.84284 1.97021 4.93864 1.97685 5.03485C1.98732 5.18675 2.03339 4.7356 2.05883 4.58548C2.19409 3.7871 2.43231 2.89905 2.30628 2.08359C2.30331 2.06435 2.28874 2.01514 2.27896 2.03197C2.23857 2.10145 2.23031 2.18521 2.20912 2.26273C2.06318 2.79665 1.92759 3.33355 1.79923 3.87195C1.66533 4.43356 1.56087 4.99542 1.46068 5.56316C1.37088 6.07201 1.48042 4.52985 1.48042 4.01314C1.48042 3.67536 1.47999 3.32658 1.40755 2.99447C1.38119 2.87364 1.28221 2.55824 1.22841 2.66959C1.19536 2.73799 1.1489 3.03267 1.14643 3.04912C1.103 3.33817 1.06508 3.69789 1.04016 3.98429C1.00018 4.44369 0.96408 4.9101 0.967287 5.37187C0.968169 5.49893 1.00753 5.36106 1.02194 5.32177C1.16282 4.93754 1.2765 4.54487 1.35138 4.14218C1.43443 3.69556 1.51602 3.17679 1.43184 2.7212C1.402 2.55973 1.34986 2.43067 1.34986 2.25969C1.34986 2.16656 1.40024 2.07889 1.45309 2.00464C1.50217 1.9357 1.56381 1.92256 1.65045 1.93785C2.07785 2.01327 2.43248 2.35282 2.67064 2.69691C3.4284 3.79171 3.10074 5.16111 2.51579 6.24784C2.29616 6.65586 2.11755 6.91805 1.85388 7.28776C1.83505 7.31416 1.58113 7.67291 1.48801 7.75079C1.43863 7.79209 1.47858 7.61915 1.49863 7.55799C1.60486 7.23401 1.72053 6.95866 1.86451 6.64255C2.15258 6.01009 2.48806 5.40612 2.82852 4.80105C2.98744 4.51864 3.31584 4.09519 3.33255 3.74443C3.34528 3.47707 3.05422 4.20192 2.92568 4.4367C2.55691 5.11032 2.16028 5.76748 1.73546 6.40724C1.69299 6.47121 1.64961 6.53459 1.6049 6.59701C1.59592 6.60955 1.56869 6.6462 1.57454 6.63193C1.59283 6.58731 1.61993 6.54683 1.64286 6.5044C1.89718 6.03372 2.15523 5.56354 2.37915 5.07735C2.51171 4.78956 2.59461 4.5007 2.69796 4.20442C2.77841 3.9738 2.78189 4.68649 2.79968 4.93009C2.85097 5.63246 2.8766 6.33631 2.92568 7.03879C2.94938 7.37787 2.98451 7.82253 3.03803 8.16828C3.05793 8.29688 3.03516 8.46943 3.14126 8.54478C3.21292 8.59567 3.25523 8.40853 3.29307 8.3292C3.44207 8.01691 3.57771 7.69839 3.72422 7.38492C4.1101 6.55936 4.52204 5.74555 4.84461 4.89214C4.88518 4.7848 4.91979 4.6753 4.95847 4.56726C4.96661 4.54453 5.02271 4.27755 5.04956 4.46706C5.07735 4.66325 5.08965 5.26993 5.09207 5.36428C5.10844 6.00303 5.11484 6.48941 5.11484 7.13595C5.11484 7.92319 5.08932 8.70842 5.07081 9.49513C5.06254 9.8469 5.19515 8.80246 5.26058 8.45673C5.40436 7.69702 5.55719 6.93903 5.68566 6.17649C5.75455 5.76759 5.79857 5.46894 5.84962 5.06825C5.8625 4.96713 5.88301 4.66273 5.88605 4.76462C5.89705 5.13293 5.84743 5.53203 5.81622 5.89411C5.72155 6.99229 5.57508 8.08446 5.45035 9.17936C5.43157 9.34421 5.41233 9.50905 5.39721 9.67427C5.38891 9.76501 5.35865 10.027 5.40328 9.94754C5.50332 9.76952 5.53418 9.56056 5.59153 9.36457C5.70077 8.9913 5.84808 8.45859 5.93767 8.08934C6.09622 7.43585 6.23787 6.77121 6.26862 6.09754C6.27042 6.05811 6.27073 5.93971 6.26862 5.97913C6.26173 6.10784 6.26387 6.14654 6.25041 6.30097C6.13945 7.57391 5.76599 8.7905 5.55965 10.0462C5.5555 10.0715 5.51001 10.3462 5.51411 10.4303C5.51642 10.4778 5.56337 10.3485 5.58091 10.3043C5.8235 9.69298 6.05141 9.0763 6.22612 8.44155C6.38024 7.88155 6.49629 7.31475 6.56618 6.7382C6.57944 6.62878 6.58995 6.47737 6.59654 6.35866C6.59901 6.31415 6.59317 6.44776 6.59047 6.49226C6.52915 7.50404 6.32053 8.50005 6.2413 9.51032C6.20203 10.0109 6.2601 8.5026 6.34301 8.00736C6.38831 7.73678 6.44867 7.46825 6.5176 7.20275C6.54705 7.08931 6.56787 6.97505 6.60869 7.15113C6.76564 7.82829 6.64368 8.52672 6.80149 9.19302C6.8473 9.38643 6.83756 9.5663 6.81515 9.76233C6.78446 10.0309 6.77992 10.3031 6.76657 10.573C6.73912 11.1282 6.76874 11.6639 6.78631 12.2172C6.81541 13.134 6.8557 14.1354 6.60261 15.0242C6.54064 15.2418 6.456 15.3937 6.32024 15.5738C6.19029 15.7461 6.0711 15.955 5.89668 16.0884C5.49054 16.399 5.09647 16.7316 4.69887 17.0555C3.88302 17.7199 3.04233 18.3533 2.21064 18.9972C1.90958 19.2302 1.62476 19.4584 1.40451 19.776C1.3099 19.9124 1.22957 20.0591 1.1191 20.1843C1.08268 20.2256 1.05246 20.2432 1.03712 20.1707C0.981569 19.9081 0.987794 19.6205 0.967287 19.3539C0.895322 18.4184 0.872491 17.4585 0.914152 16.5211C0.914181 16.5204 0.912178 16.4426 0.946033 16.4634C1.04888 16.5267 1.02498 16.8244 1.02498 16.9006C1.02498 17.5181 0.931004 18.1317 0.93996 18.7497C0.94002 18.7538 0.934352 18.8282 0.959696 18.7892C1.1142 18.5515 1.19032 18.1889 1.28458 17.9314C1.47187 17.4198 1.63534 16.8713 1.90246 16.3936C2.00743 16.2058 2.02181 16.4128 2.02847 16.5135C2.05223 16.8729 1.99732 17.2333 1.92068 17.5838C1.7531 18.35 1.50101 19.104 1.20715 19.8306C1.18669 19.8812 1.16911 19.934 1.13884 19.9794C1.12985 19.9929 1.13671 19.9466 1.14035 19.9308C1.16646 19.8177 1.27354 19.462 1.29824 19.3812C1.49236 18.7464 1.68594 18.111 1.88424 17.4775C1.97552 17.1859 2.05588 16.8545 2.1985 16.5803C2.35917 16.2713 2.21589 17.2792 2.17269 17.6248C2.11806 18.0618 2.01493 18.503 1.97229 18.941C1.96317 19.0347 2.03963 18.7651 2.07249 18.6768C2.19626 18.3444 2.31486 18.037 2.45506 17.7083C2.77574 16.9563 3.12763 16.2179 3.51776 15.4994C3.82125 14.9404 4.14834 14.2658 4.59564 13.7975C4.78616 13.5981 4.64436 14.3513 4.6093 14.6249C4.52111 15.3132 4.37125 15.9858 4.22825 16.6638C4.05303 17.4944 4.77441 15.0523 4.95392 14.2226C4.99099 14.0513 5.07911 13.5795 5.10269 13.3603C5.10455 13.343 5.10302 13.2932 5.0951 13.3087C5.06602 13.3655 5.05569 13.4302 5.0359 13.4909C4.73325 14.419 4.37616 15.3233 3.99142 16.2205C3.71913 16.8554 3.42877 17.4821 3.14885 18.1136C3.12288 18.1722 3.04742 18.3485 3.07902 18.2927C3.14108 18.1832 3.18556 18.0646 3.2369 17.9496C3.51725 17.3219 3.79528 16.6936 3.99749 16.0353C4.1008 15.699 4.08701 15.711 4.15082 15.4326C4.16561 15.368 4.18223 15.2952 4.166 15.428C4.12536 15.7605 4.04362 16.0878 3.96105 16.4118C3.86479 16.7895 3.70682 17.1817 3.6635 17.5716C3.65195 17.6756 3.71186 17.6231 3.74851 17.5716C4.06167 17.132 4.29907 16.6007 4.54098 16.1218C4.83664 15.5365 5.10031 14.9422 5.32434 14.3258C5.33709 14.2908 5.55383 13.4212 5.51259 14.0101C5.47812 14.5023 5.41553 14.9927 5.33649 15.4796C5.32313 15.5619 5.27598 15.8037 5.3122 15.7286C5.40279 15.5407 5.46081 15.299 5.51866 15.1062C5.69886 14.5055 5.86193 13.8981 5.95285 13.2768C6.01002 12.8862 6.00202 13.1996 6.00295 13.3725C6.00605 13.9493 5.94079 14.5221 5.8314 15.088C5.80781 15.21 5.78133 15.3314 5.75246 15.4523C5.73526 15.5243 5.71579 15.5958 5.69325 15.6664C5.68435 15.6942 5.6874 15.7437 5.65833 15.7468C5.63305 15.7495 5.65018 15.6963 5.65074 15.6709C5.65221 15.604 5.65823 15.5372 5.6644 15.4705C5.6826 15.2741 5.7462 14.726 5.76157 14.5718C5.86824 13.5011 5.93244 12.4267 5.91034 11.3503C5.90359 11.0212 5.88232 10.0424 5.82533 10.3665C5.70815 11.033 5.69398 11.7288 5.62949 12.4024C5.61335 12.5709 5.60636 12.5575 5.62038 12.3781C5.66736 11.7767 5.77156 11.1818 5.86632 10.5867C5.9244 10.2219 5.98606 9.85746 6.01661 9.48906C6.04144 9.18964 5.98107 9.64853 5.98018 9.65302C5.77259 10.7009 5.44201 11.7231 5.13306 12.7439C4.95427 13.3347 4.7278 13.9356 4.58653 14.5384C4.41441 15.2728 5.14707 13.1362 5.3714 12.416C5.57823 11.7521 5.74698 11.0794 5.94071 10.4121C5.9565 10.3577 5.96756 10.286 5.98321 10.3757C6.00644 10.5087 6.01437 10.7194 6.01813 10.8341C6.04585 11.6795 5.9894 12.5364 5.76157 13.3542C5.70575 13.5546 5.70231 13.2799 5.70084 13.2389C5.69361 13.0374 5.72316 12.8559 5.74942 12.6589" stroke="white" stroke-linecap="round"/>
<path d="M4.19169 5.96379C4.14176 6.00411 4.10119 6.09643 4.04898 6.12471C4.0053 6.14837 3.97022 6.07973 3.96093 6.05791C3.91113 5.94095 3.87597 5.73418 3.86681 5.62069C3.82082 5.05121 3.92913 4.48583 4.06417 3.93555C4.11569 3.7256 4.257 3.0972 4.24634 3.31312C4.22238 3.79841 4.05024 4.31358 3.91842 4.77357C3.74648 5.37356 3.58132 6.03088 3.3051 6.59533C3.18647 6.83774 3.38585 6.06145 3.43869 5.79679C3.56899 5.1442 3.69907 4.48463 3.75143 3.82018C3.79989 3.20519 3.70301 2.69933 3.13203 2.43867C2.96534 2.36257 2.87264 2.19124 2.7616 2.05306C2.66615 1.93427 2.83741 1.98649 2.91342 1.99537C3.66941 2.08374 4.42982 2.17204 5.18759 2.24739C5.98092 2.32627 6.77659 2.36092 7.57106 2.42349C8.59451 2.50409 9.60633 2.67473 10.6225 2.81517C11.7862 2.97599 12.9528 3.1107 14.1203 3.24025C14.3673 3.26765 14.6144 3.2932 14.8612 3.32223C14.9193 3.32907 14.9954 3.30872 15.0342 3.35259C15.0552 3.37627 14.9997 3.40782 14.9735 3.42546C14.8689 3.49574 14.7033 3.56722 14.594 3.6046C13.7344 3.89845 12.7998 4.00172 11.9008 4.0813C9.57727 4.28696 7.24896 4.22966 4.92647 4.05701C4.75938 4.04458 4.42434 4.06676 4.2767 3.9477C4.14608 3.84236 4.51956 3.69451 4.68053 3.64711C5.49695 3.40668 6.39475 3.4102 7.23707 3.42546C7.64081 3.43278 8.84494 3.45115 8.44551 3.51048C7.8598 3.59746 7.23065 3.58173 6.64196 3.59549C5.62342 3.61929 4.59779 3.62905 3.57988 3.57424C3.30227 3.55929 3.55035 3.50738 3.6649 3.47556C4.55127 3.22934 5.48408 3.15008 6.39754 3.08084C7.37741 3.00657 8.38729 2.92736 9.37157 2.96546C9.50034 2.97045 9.56294 2.97659 9.40801 3.02467C9.16822 3.09909 8.89917 3.13942 8.65501 3.16889C7.71073 3.2829 6.76095 3.26576 5.81306 3.21748C5.46956 3.19998 5.11783 3.1522 4.77314 3.1522C4.14588 3.1522 6.02694 3.08691 6.65411 3.09754C8.0725 3.12158 9.48918 3.21797 10.9049 3.30249C11.0506 3.31119 11.1964 3.3187 11.3421 3.3283C11.3731 3.33034 11.4635 3.32589 11.4347 3.33741C11.2806 3.39905 11.1027 3.33861 10.9368 3.33437C8.85184 3.28108 6.77362 3.08981 4.68812 3.03985C4.40228 3.03301 4.2217 3.03038 3.9503 3.01253C3.87289 3.00743 3.78293 3.0269 3.71955 2.98216C3.67301 2.94931 3.8255 2.93643 3.88199 2.92903C4.27916 2.87702 4.5846 2.87852 5.01148 2.88045C7.25999 2.89062 9.50836 3.04509 11.7535 3.1522C12.563 3.19081 13.521 3.23838 14.348 3.25695C14.6944 3.26472 15.0554 3.27564 15.4031 3.23721C15.61 3.21435 15.7774 3.12943 15.9694 3.06111C15.9963 3.05155 16.0786 3.02852 16.0514 3.03682C15.945 3.0692 15.8795 3.07999 15.7523 3.09906C14.8114 3.24019 13.8553 3.28737 12.9104 3.3951C11.7112 3.5318 10.5187 3.7512 9.31692 3.86117C9.17546 3.87411 8.89752 3.97274 8.89184 3.8308C8.88543 3.6705 9.13598 3.61659 9.28049 3.54691C10.4551 2.98058 11.8182 2.83991 13.1032 2.78329C13.8999 2.74818 14.4427 2.76579 15.2149 2.8258C15.3514 2.8364 15.8101 2.87352 16.0195 2.9351C16.3922 3.04473 15.2451 3.01626 14.8566 3.01404C11.6446 2.99569 8.42978 2.63338 5.23009 2.37795C3.41922 2.23338 8.86341 2.45183 10.6772 2.55405C11.3848 2.59393 12.126 2.68022 12.8375 2.6421C13.2225 2.62147 12.0662 2.63998 11.6807 2.64969C10.2343 2.68613 8.78858 2.75047 7.34182 2.77114C6.80824 2.77877 6.47984 2.78001 5.9755 2.76507C5.87777 2.76217 5.77966 2.76234 5.6825 2.75141C5.54664 2.73612 5.68479 2.68688 5.72804 2.67246C6.56822 2.3924 7.50113 2.36397 8.37568 2.3324C9.97563 2.27465 11.5785 2.31065 13.1791 2.28989C13.9394 2.28003 14.6981 2.26185 15.4563 2.20488C15.6091 2.19339 15.1695 2.3181 15.019 2.34758C13.9624 2.55461 12.8673 2.57782 11.7945 2.54798C11.0426 2.52706 10.2182 2.50927 9.47784 2.34151C9.18721 2.27565 10.0494 2.15541 10.3462 2.12897C12.0501 1.97721 13.7756 2.01275 15.4836 2.04092C16.5729 2.05888 17.6629 2.09063 18.7506 2.15326C18.8216 2.15735 19.0213 2.13047 18.9632 2.17148C18.8149 2.27614 18.4376 2.30359 18.2861 2.3324C17.3344 2.51328 16.3718 2.62247 15.4047 2.6755C14.8712 2.70475 14.2322 2.77805 13.6983 2.66335C13.5017 2.62113 14.0763 2.5168 14.2752 2.48725C16.0839 2.21853 17.9059 2.28774 19.7253 2.21399C19.9704 2.20405 20.2081 2.09058 20.454 2.06217C21.0085 1.9981 21.5436 2.0677 22.0936 2.12593C22.4602 2.16475 22.8399 2.13808 23.2079 2.13808C23.5077 2.13808 23.5789 2.1661 23.8334 2.3324C24.6863 2.88975 25.1299 3.88361 25.9982 4.43654C26.2924 4.62388 26.6003 4.80092 26.9 4.98003C27.1079 5.10429 27.3367 5.21056 27.5346 5.35046C27.6745 5.4494 27.7438 5.63616 27.8261 5.78009C28.0512 6.17414 28.1959 6.6052 28.4166 6.99764C28.4696 7.0918 28.5269 7.13344 28.5502 7.26028C28.5926 7.49117 28.5605 7.73654 28.4819 7.95558C28.3179 8.4123 27.8667 8.77682 27.5194 9.09115C27.0688 9.49898 26.5626 9.75531 26.0392 10.0476C25.5931 10.2967 25.2426 10.6165 24.8581 10.9524C24.4881 11.2755 24.1105 11.589 23.724 11.8921C23.708 11.9047 23.4768 12.0862 23.4189 12.1259C23.4041 12.136 23.3801 12.1676 23.3718 12.1517C23.3288 12.0685 23.4429 11.9776 23.4903 11.8967C24.3924 10.3545 25.8046 9.2521 27.0275 7.98595C27.3981 7.6023 27.661 7.20797 28.16 6.99612C28.4345 6.87961 28.6846 6.92515 28.9707 6.96879C29.1156 6.99088 29.1235 7.03458 29.0132 7.1874C28.6701 7.66295 28.0812 7.94834 27.6166 8.28957C27.125 8.65059 26.6264 8.94711 26.2381 9.4221C25.8827 9.85677 25.4137 10.1817 24.9947 10.5516C24.9416 10.5985 24.6805 10.8334 24.5985 10.9023C24.5671 10.9287 24.4904 10.9932 24.4862 10.9524C24.4751 10.8472 24.5241 10.7441 24.5484 10.6412C24.6152 10.3574 24.6579 10.2006 24.7048 9.8988C24.8402 9.02698 24.749 8.19142 24.4983 7.34681C24.2301 6.44334 23.8437 5.5172 23.2595 4.76901C23.0328 4.47866 22.7873 4.26881 22.4321 4.1739C22.2251 4.11858 21.899 3.99274 21.6837 4.05093C21.4582 4.11187 21.6157 4.5545 21.6624 4.66881C22.0086 5.51566 22.8404 6.2129 23.4918 6.80939C23.9792 7.25573 24.3682 7.58525 24.8885 7.96621C24.9215 7.99037 25.2349 8.25499 25.3879 8.23037C25.508 8.21104 25.5811 7.99765 25.6096 7.93281C25.7269 7.66541 25.7907 7.48212 25.8251 7.18285C25.8837 6.67482 25.8042 6.12515 25.5914 5.65864C25.565 5.60095 25.5299 5.50431 25.5124 5.62069C25.4963 5.72782 25.4912 6.21594 25.4912 6.21731C25.4729 7.09607 25.4337 7.99462 25.6065 8.86191C25.6411 9.03524 25.7486 9.53856 25.8995 9.13214C26.2986 8.05771 26.327 6.82846 25.8828 5.76491C25.8545 5.69695 25.8509 5.64876 25.8251 5.72999C25.7966 5.82002 25.7239 6.14101 25.7158 6.17633C25.6147 6.6196 25.4677 7.10854 25.52 7.56846C25.5471 7.80676 25.6651 7.7622 25.7796 7.60489C26.0124 7.28518 26.1662 6.89702 26.235 6.5088C26.2603 6.36635 26.272 6.23857 26.2533 6.09738C26.2348 5.95759 26.2206 6.12835 26.2199 6.13837C26.1849 6.59247 26.2144 7.06956 26.3216 7.51229C26.3515 7.63602 26.455 8.11403 26.6859 7.91459C26.8932 7.73561 26.9815 7.41512 26.9698 7.15097C26.955 6.81538 26.7842 6.5037 26.6115 6.22491C26.5611 6.1435 26.4301 5.89751 26.4415 6.14596C26.4557 6.45404 26.5292 6.75668 26.6723 7.03104C26.7194 7.12138 26.7955 7.25045 26.8833 7.31796C26.942 7.36313 26.9659 7.34371 26.9592 7.27394C26.9312 6.98471 26.6323 6.70161 26.4339 6.5255C25.9545 6.09992 25.3824 5.78223 24.7883 5.54782C24.7579 5.53582 24.1309 5.23855 24.1309 5.47798C24.1309 5.86012 24.6144 6.17698 24.8778 6.36154C25.3947 6.72365 25.9424 7.04536 26.4779 7.37869C26.5014 7.39329 26.8379 7.66602 26.6753 7.45156C26.3396 7.00865 25.9779 6.59516 25.5762 6.20972C25.3018 5.94649 24.9152 5.60572 24.6137 5.36564C24.4573 5.24116 24.3126 5.06616 24.1157 5.03165C24.0311 5.01681 24.0503 5.19838 24.0611 5.28366C24.0903 5.51517 24.1944 5.94281 24.2645 6.14293C24.4527 6.68026 24.798 7.44961 25.394 7.65499C25.8338 7.80656 26.053 7.20237 26.1348 6.89896C26.2766 6.3739 26.2314 5.83397 26.0498 5.32617C26.0053 5.20157 25.9622 5.12805 25.9041 5.0195C25.8908 4.9947 25.9385 5.06405 25.9557 5.0863C26.2552 5.4734 26.5554 5.86406 26.9 6.21276C27.1468 6.46255 27.449 6.75817 27.7927 6.87467C27.9571 6.93043 27.7973 6.77006 27.7684 6.73804C27.4509 6.38697 27.0991 6.07187 26.733 5.7725C26.5943 5.65911 26.244 5.38559 26.0863 5.26544C26.011 5.20811 25.9465 5.11478 25.8525 5.10452C25.8125 5.10016 25.8503 5.40552 25.8525 5.41726C25.882 5.57703 25.9495 5.729 26.0347 5.86663C26.0811 5.9418 26.2112 5.98898 26.1197 5.9061C25.8867 5.6952 25.5748 5.54652 25.2999 5.40511C24.5742 5.03189 23.8199 4.68925 23.0318 4.46994C22.7766 4.39894 22.1976 4.18889 21.966 4.45779C21.6858 4.78324 21.4887 5.41073 21.5744 5.83019C21.7373 6.62747 22.7631 6.98079 23.4811 6.82002C24.2394 6.65022 23.9395 5.90775 23.5935 5.51745C23.4257 5.32823 23.0958 5.07113 22.8769 4.93753C22.8308 4.90935 22.5126 4.73462 22.4002 4.75838C22.0833 4.8254 22.632 5.88239 22.6644 5.94253C22.9978 6.56071 23.4903 7.14333 24.0702 7.54569C24.4423 7.80387 24.4519 7.4552 24.4254 7.14793C24.3714 6.52259 24.13 5.91757 23.7666 5.40815C23.7145 5.33518 23.6558 5.26592 23.5889 5.20624C23.5601 5.18046 23.517 5.13569 23.4842 5.15614C23.4449 5.18058 23.4543 5.24502 23.4523 5.29125C23.4481 5.38894 23.4554 5.48705 23.466 5.58425C23.564 6.48691 23.7932 7.38247 24.0429 8.25314C24.081 8.38607 24.2522 8.95036 24.3313 9.13669C24.4082 9.31789 24.4646 9.28296 24.5393 9.13669C24.6191 8.98047 24.7383 8.7413 24.7154 8.55828C24.6966 8.40801 24.5312 8.80437 24.4801 8.94693C24.2499 9.58909 24.0392 10.228 23.6664 10.8066C23.3004 11.3747 22.8205 11.8289 22.2697 12.214C21.9686 12.4244 21.6494 12.6067 21.3451 12.8121C21.2615 12.8685 21.1471 12.9361 21.0931 13.0262C20.9291 13.2995 21.5184 12.551 21.7383 12.3202C22.5459 11.4728 23.4184 10.6716 24.1188 9.72877C24.2368 9.56991 24.8061 8.86457 24.6106 8.56739C24.5554 8.48345 24.4693 8.64727 24.4619 8.65696C24.2522 8.93011 24.0677 9.22176 23.8622 9.49801C22.8419 10.8693 21.7203 12.1593 20.5769 13.4285C20.2421 13.8002 19.8712 14.2058 19.5218 14.5747C19.4549 14.6453 19.3974 14.7273 19.3184 14.7842C19.302 14.796 19.3079 14.7423 19.3154 14.7234C19.4061 14.4941 19.8365 13.7077 19.8619 13.6607C20.3304 12.7959 20.6589 12.2086 21.166 11.341C21.8703 10.1361 22.5846 8.92067 23.3794 7.77189C23.3972 7.74614 23.5629 7.48911 23.4766 7.70205C23.3707 7.9633 23.212 8.22962 23.0682 8.46264C22.3477 9.62988 21.4967 10.7122 20.5891 11.7388C20.2288 12.1464 20.0889 12.2874 19.745 12.6375C19.6695 12.7144 19.6195 12.848 19.5127 12.8622C19.4228 12.8742 19.5916 12.6984 19.6387 12.6208C19.8687 12.2427 20.0389 11.987 20.2991 11.5991C21.0291 10.511 21.7977 9.44555 22.4503 8.30779C22.63 7.9946 22.7027 7.85406 22.8299 7.56087C22.9036 7.39083 22.8519 7.49101 22.8147 7.56238C22.329 8.49335 21.7135 9.35186 21.0643 10.1751C20.4981 10.8929 20.0838 11.3706 19.4581 12.0151C19.2374 12.2423 18.8818 12.5979 18.5927 12.803C18.4604 12.8969 18.4178 12.9242 18.4379 12.7499C18.4674 12.4936 18.6067 12.0894 18.6762 11.886C19.0932 10.6676 19.6178 9.48911 20.1382 8.31234C20.2751 8.00284 20.6292 7.06051 20.5709 7.39387C20.4595 8.03029 20.2435 8.66299 20.0486 9.27636C19.857 9.87958 19.6332 10.468 19.4201 11.0632C19.3365 11.2969 19.6748 10.6371 19.7997 10.4226C20.3549 9.46868 20.9534 8.53788 21.4074 7.52899C21.6007 7.09934 21.6538 6.93298 21.7839 6.52246C21.8028 6.4626 21.8595 6.28661 21.8583 6.34939C21.842 7.16415 21.6363 8.00369 21.4317 8.786C21.2848 9.34729 21.1627 9.72975 20.9732 10.2632C20.8995 10.4704 20.6767 11.087 20.7151 10.8704C20.7332 10.7684 20.8902 10.3447 20.8912 10.3421C21.0893 9.81242 21.2305 9.47671 21.4468 8.9363C21.799 8.05676 22.1383 7.18115 22.3911 6.26741C22.4115 6.19369 22.4677 5.9726 22.461 6.0488C22.4499 6.17457 22.3494 6.56755 22.3365 6.61355C22.0379 7.67947 21.6331 8.71911 21.1675 9.72269C21.1204 9.82412 21.0877 9.93734 21.0127 10.0202C20.9736 10.0634 21.0329 9.90513 21.0521 9.85022C21.1916 9.45195 21.4935 8.71808 21.6472 8.36548C21.8221 7.96447 22.0916 7.37848 22.3122 6.9779C22.3693 6.8741 22.4312 6.77236 22.5019 6.67731C22.5321 6.63681 22.5623 6.57361 22.6128 6.57408C22.6522 6.57444 22.6586 6.64045 22.6674 6.67883C22.6883 6.76973 22.7003 6.86338 22.7008 6.95665C22.7032 7.39608 22.6335 7.88841 22.549 8.31083C22.4204 8.95384 22.2456 9.54847 22.0571 10.1751C21.9608 10.4955 21.8095 10.8033 21.7626 11.1346C21.7464 11.2489 21.9257 10.9692 21.9903 10.8734C22.1633 10.6172 22.5344 10.0352 22.6796 9.79557C22.9422 9.36218 23.1105 9.06289 23.3384 8.62053C23.4253 8.45194 23.461 8.249 23.5905 8.11043C23.6664 8.02917 23.5736 8.33316 23.5479 8.44139C23.4555 8.83152 23.3398 9.19897 23.2018 9.57695C22.9857 10.1687 22.7399 10.7686 22.4488 11.3289C22.272 11.6691 22.7367 10.6171 22.9103 10.2753C23.0932 9.91539 23.3599 9.4319 23.5662 9.08204C23.5814 9.05625 23.894 8.52671 23.9912 8.44139C24.1762 8.27917 24.1914 9.35367 24.1916 9.36441C24.1983 9.70058 24.1878 9.80203 24.1795 10.1204C24.1789 10.1429 24.1258 10.4285 24.2448 10.3952C24.5062 10.322 24.7567 10.1076 25.0038 9.99444C25.0953 9.95256 25.4742 9.73639 25.5929 9.83807C25.862 10.0688 25.5023 10.8083 25.3773 11.0359C25.3209 11.1385 25.211 11.1606 25.1298 11.2332C24.9418 11.4015 24.7394 11.5507 24.5484 11.716C23.9523 12.2319 23.3338 12.7353 22.6264 13.0914C21.7809 13.5171 20.9397 13.9373 20.1063 14.3879C19.7931 14.5573 19.4738 14.7192 19.1666 14.8995C19.1094 14.9331 19.1119 14.9484 19.1119 15.0088" stroke="white" stroke-linecap="round"/>
<path d="M5.53085 2.3021C5.54168 2.24795 5.59693 2.21321 5.64167 2.18824C6.02659 1.9734 6.51862 1.91433 6.94727 1.8588C7.70999 1.76001 8.45658 1.82763 9.21537 1.91497C9.90324 1.99415 10.6033 2.00989 11.2937 2.06982C11.7745 2.11156 12.2562 2.14633 12.7359 2.19887C12.951 2.22242 13.3166 2.22067 13.5193 2.3355C13.6631 2.41698 13.3736 2.60511 13.3432 2.62394C12.7158 3.01205 11.9196 3.20005 11.2193 3.36783C8.26927 4.07461 5.2048 4.4032 2.17273 4.4032C1.94925 4.4032 1.7534 4.40753 2.04521 4.34248C2.62897 4.21234 3.22321 4.15304 3.81991 4.12083C5.24378 4.04397 6.67187 4.07233 8.0965 4.10565C8.90375 4.12452 9.71889 4.13668 10.5255 4.18763C10.7618 4.20255 10.7274 4.24758 10.5195 4.32426C9.79059 4.59299 8.99044 4.72911 8.22858 4.84498C7.76398 4.91564 7.29795 4.97851 6.83038 5.02564C6.52372 5.05654 5.12506 5.17792 4.66855 5.10458C3.93753 4.98714 6.10508 4.7152 6.84252 4.64914C8.46086 4.50417 10.0886 4.46518 11.7127 4.47911C12.0038 4.48161 12.2948 4.49176 12.5856 4.5034C12.7385 4.50952 13.1745 4.48622 13.0411 4.56109C12.9925 4.58835 12.9337 4.59183 12.8786 4.60056C12.5768 4.64841 12.0458 4.69648 11.7765 4.71594C10.7831 4.7877 9.78682 4.8155 8.79181 4.85409C8.29255 4.87345 7.78734 4.88153 7.28885 4.92544C7.20512 4.93282 7.16906 4.94352 7.37539 4.91178C8.76621 4.69781 10.2186 4.60054 11.6231 4.7129C11.8716 4.73278 12.1524 4.78218 11.7461 4.87382C10.9723 5.04834 10.1714 5.1421 9.38844 5.25943C8.40201 5.40726 7.41498 5.55107 6.42959 5.70576C6.26576 5.73148 5.77644 5.80826 5.94227 5.80596C6.34962 5.8003 6.76053 5.7505 7.1674 5.73613C8.32062 5.69539 9.475 5.69518 10.6288 5.6921C11.3384 5.69021 12.0505 5.67895 12.7602 5.69058C12.7851 5.69099 12.8564 5.68607 12.8346 5.69817C12.6775 5.78548 12.4788 5.7503 12.3002 5.77104C10.7643 5.94943 9.22081 6.04038 7.68357 6.2022C7.25108 6.24772 7.64608 6.19879 7.7109 6.18853C8.5067 6.06259 9.30538 5.98584 10.1096 5.93348C11.3549 5.8524 12.6026 5.82061 13.8502 5.80596C14.0891 5.80316 14.3279 5.80292 14.5668 5.80292C14.6994 5.80292 14.8321 5.8011 14.9646 5.80596C14.9978 5.80718 15.0476 5.79178 15.0632 5.82114C15.0758 5.84477 15.0151 5.84604 14.9888 5.85151C14.7694 5.89726 14.2681 5.95483 14.1023 5.96992C12.9673 6.0732 11.8282 6.09862 10.6895 6.12325C9.79298 6.14265 8.8948 6.14408 7.99934 6.19764C7.91821 6.20249 7.83729 6.21058 7.75644 6.21889C7.58873 6.23614 7.69597 6.23151 7.7367 6.22649C9.25366 6.03921 10.7719 5.92633 12.2987 5.84999C12.7708 5.82638 13.3483 5.74515 13.832 5.79078C13.9934 5.806 13.5424 5.94231 13.3857 5.98358C11.2601 6.5433 9.00332 6.61275 6.82127 6.76087C6.3474 6.79304 5.87016 6.81726 5.39725 6.86562C5.37995 6.86739 5.36297 6.87177 5.34564 6.87321C5.28803 6.87801 5.45779 6.84509 5.51415 6.83222C7.25682 6.43421 9.05953 6.35311 10.8413 6.35856C11.1298 6.35945 11.4183 6.36394 11.7066 6.37374C11.9293 6.38132 12.1761 6.33364 12.3716 6.44054C12.3898 6.4505 12.3704 6.48467 12.3579 6.50127C12.2822 6.60228 12.0806 6.70768 11.9966 6.75176C10.7704 7.39537 9.30731 7.72849 7.94317 7.90555C7.8414 7.91875 7.50492 7.96044 7.34806 7.94805C7.26373 7.9414 7.46108 7.81513 7.53783 7.77954C8.53959 7.315 9.73189 7.21462 10.82 7.15103C10.9014 7.14627 10.983 7.14473 11.0645 7.14192C11.1039 7.14056 11.2081 7.11311 11.1829 7.14344C11.1458 7.18797 10.8372 7.24478 10.8352 7.24516C10.1728 7.37052 9.49403 7.39515 8.82217 7.41519C7.89125 7.44295 6.95684 7.44706 6.02576 7.42126C5.94096 7.41891 5.26876 7.44773 5.13006 7.34232C5.12138 7.33572 5.13248 7.31687 5.14221 7.31195C5.21403 7.27567 5.50306 7.21385 5.53389 7.20872C6.29793 7.08163 7.08317 7.06081 7.85512 7.04173C8.87894 7.01641 9.9058 7.01802 10.9293 7.05691C11.1021 7.06347 11.2748 7.07269 11.447 7.08727C11.5523 7.09618 11.8115 7.09198 11.7507 7.17836C11.6189 7.36533 10.9994 7.42621 10.8352 7.45162C10.3265 7.53035 9.79983 7.56675 9.2852 7.53816C9.00658 7.52268 8.95104 7.45744 9.2594 7.39393C9.95571 7.25053 10.6893 7.24563 11.3954 7.23149C12.4977 7.20942 13.601 7.21987 14.7034 7.22087C15.0725 7.2212 16.1675 7.15761 15.8102 7.24971C15.209 7.40464 14.5109 7.41697 13.8988 7.46073C13.3216 7.50199 12.7354 7.53497 12.156 7.51842C11.9649 7.51296 12.0507 7.47584 12.1681 7.44859C12.6147 7.34498 13.0916 7.32814 13.5466 7.31803C14.1595 7.30441 14.7781 7.31896 15.3866 7.40001C15.4877 7.41347 15.7717 7.4785 15.6735 7.50628C15.4555 7.56798 15.1709 7.55715 14.9524 7.55789C14.336 7.55998 13.7221 7.51284 13.1094 7.4501C12.6918 7.40735 12.2364 7.38096 11.825 7.28159C11.803 7.27627 11.7573 7.26916 11.7658 7.24819C11.7775 7.21958 11.822 7.22042 11.8524 7.21479C11.9456 7.19752 12.0403 7.18881 12.1347 7.17988C12.7877 7.11808 13.4471 7.10404 14.1023 7.09031C15.0866 7.06968 16.0706 7.07429 17.055 7.08423C17.7358 7.09111 18.4175 7.11127 19.0969 7.05387C19.781 6.99608 20.4505 6.86338 21.1403 6.92027C21.5164 6.95129 20.8824 7.15341 20.8215 7.17229C19.8415 7.47611 18.7874 7.45082 17.7731 7.44555C17.3427 7.44331 16.9139 7.49413 16.4857 7.49413C15.8041 7.49413 17.8476 7.42615 18.5291 7.41822C19.2309 7.41006 19.9332 7.41543 20.6348 7.39393C20.9182 7.38525 21.2443 7.38943 21.5259 7.32106C21.6383 7.29379 21.2954 7.30096 21.1798 7.29829C20.3012 7.27801 19.4226 7.24475 18.5443 7.21479C16.9995 7.16211 15.4548 7.10882 13.911 7.0311C13.1618 6.99338 12.3748 6.98382 11.6277 6.87777C11.5944 6.87304 11.5502 6.87419 11.532 6.84589C11.4744 6.75589 11.727 6.75447 11.8311 6.73051C12.6585 6.54012 13.5228 6.48275 14.3664 6.42536C16.0468 6.31105 21.1 6.24579 19.4157 6.23711C17.9937 6.22978 16.5718 6.22672 15.1498 6.21586C14.7186 6.21256 14.2875 6.20979 13.8563 6.20979C13.7358 6.20979 14.095 6.17615 14.2146 6.16121C16.7358 5.84606 19.3001 5.86915 21.8326 6.0185C22.1523 6.03736 22.4715 6.0647 22.7906 6.09289C22.9756 6.10924 23.1607 6.12615 23.3447 6.1521C23.4016 6.16012 23.4648 6.16133 23.5117 6.1946C23.5293 6.20715 23.4811 6.22876 23.4601 6.23408C23.307 6.27286 22.7793 6.32665 22.6888 6.33427C21.3368 6.44824 19.9677 6.46439 18.6111 6.45572C18.4098 6.45444 18.4629 6.44188 18.6187 6.40107C18.986 6.30489 19.3542 6.21359 19.7254 6.13388C20.1383 6.04522 21.3892 5.85141 20.9688 5.89098C18.9659 6.07948 16.9733 6.22753 14.96 6.27658C13.953 6.30112 12.8693 6.37767 11.8584 6.27962C11.8201 6.2759 11.7397 6.27055 11.7522 6.23408C11.7703 6.18095 11.8479 6.17343 11.901 6.15513C12.0411 6.10683 12.1852 6.07056 12.3291 6.0352C14.1486 5.58812 16.0946 5.50716 17.9614 5.53573C18.1042 5.53792 18.2473 5.54033 18.3895 5.55395C18.4175 5.55664 18.4879 5.56392 18.4684 5.58431C18.4345 5.61983 18.3743 5.61386 18.3257 5.62075C17.6839 5.71167 17.0188 5.71323 16.3734 5.7255C15.1723 5.74833 13.9706 5.74524 12.7693 5.74524C12.4748 5.74524 12.1803 5.74496 11.8858 5.74372C11.6296 5.74263 11.3654 5.78447 11.1176 5.71943C10.9566 5.67716 11.3758 5.49993 11.5305 5.43857C12.416 5.08747 13.3771 4.92768 14.3148 4.79944C15.6158 4.62151 16.9285 4.53379 18.2407 4.50036C18.4248 4.49567 18.6092 4.4941 18.7933 4.50036C19.1665 4.51307 18.7988 4.56246 18.6627 4.58082C17.5199 4.73507 16.3547 4.77084 15.2044 4.81917C14.6955 4.84056 14.1863 4.85665 13.6772 4.87231C13.145 4.88867 12.6058 4.97598 12.0801 4.89204C12.0443 4.88633 12.1417 4.8503 12.1773 4.84346C12.5335 4.77498 13.4292 4.68335 13.7106 4.66129C15.0495 4.55629 16.3929 4.53524 17.7352 4.52162C18.3487 4.51539 18.9876 4.48815 19.604 4.51554C19.9478 4.53082 18.9169 4.55641 18.5732 4.57172C17.5619 4.61675 16.5503 4.63564 15.5384 4.65825C14.9631 4.6711 14.3549 4.73308 13.7774 4.70683C13.6104 4.69924 13.9071 4.50953 13.9231 4.49429C14.0824 4.34252 14.2333 4.18104 14.4028 4.04037C14.7547 3.74844 15.098 3.77863 15.5475 3.7838C16.719 3.79727 17.8893 3.86161 19.0605 3.88552C20.0263 3.90523 17.1311 3.99404 16.1654 4.0176C15.2308 4.04039 14.2962 4.04688 13.3614 4.05099C13.2086 4.05167 12.7516 4.07674 12.9029 4.05555C13.1585 4.01977 13.4098 3.95808 13.665 3.92043C14.6038 3.78201 15.5554 3.72612 16.5009 3.65931C17.4287 3.59376 20.2138 3.45285 19.2837 3.45285C18.0506 3.45285 16.8206 3.50626 15.587 3.45892C15.3485 3.44977 14.6582 3.41251 14.8826 3.3314C15.377 3.15269 15.9893 3.11178 16.5009 3.0642C17.4988 2.97142 18.5022 2.94727 19.5038 2.93668C19.7492 2.93409 19.9947 2.93417 20.2401 2.93668C20.4411 2.93874 20.6809 2.86251 20.8413 2.98374C20.8584 2.99673 20.8335 3.03126 20.8155 3.04295C20.7073 3.11288 20.3538 3.21604 20.272 3.23727C19.7026 3.38492 19.1183 3.46602 18.5398 3.56671C18.2482 3.61745 17.8529 3.6473 17.5788 3.79291C17.5629 3.80133 17.5467 3.81617 17.5439 3.8339C17.5371 3.87691 17.6323 3.84054 17.6744 3.82935C17.9321 3.76082 18.1814 3.67404 18.4441 3.62288C18.6574 3.58134 18.9886 3.49399 19.2017 3.59859C19.4309 3.71113 19.5396 4.06135 19.6252 4.27264C19.7432 4.56348 19.8435 4.86458 19.9167 5.16986C19.9353 5.24737 19.9106 5.46835 19.9592 5.40517C20.008 5.34171 20.0663 5.04466 20.0792 5.00287C20.1879 4.64851 20.4945 3.58369 20.3464 3.92347C20.2522 4.13948 20.2232 4.43593 20.19 4.66129C20.1294 5.07254 20.092 5.48729 20.0898 5.90312C20.0892 6.01199 20.0834 6.32933 20.1232 6.228C20.1873 6.06491 20.1972 5.82005 20.2234 5.65567C20.2784 5.30958 20.3282 4.96338 20.3722 4.61574C20.3841 4.52102 20.4039 4.28529 20.4754 4.34855C20.68 4.52957 20.8245 4.86959 20.943 5.10155C21.115 5.43846 21.2538 5.78797 21.4121 6.13084C21.4298 6.16928 21.4395 6.21527 21.4713 6.24318C21.4827 6.2532 21.4951 6.22151 21.4986 6.20675C21.559 5.95717 21.5319 5.63331 21.5199 5.38392C21.5004 4.98108 21.4535 4.57945 21.3104 4.19977C21.2811 4.12225 21.2456 4.04677 21.2041 3.97509C21.1746 3.92418 21.1114 3.81741 21.0705 3.85971C20.9631 3.9708 20.9287 4.49817 20.9096 4.60056C20.8395 4.97497 20.7713 5.3498 20.7001 5.72398C20.6936 5.75801 20.6912 5.79333 20.6788 5.8257C20.6525 5.89484 20.6837 5.67768 20.691 5.60405C20.7249 5.2625 20.7786 4.92403 20.8337 4.58538C20.8841 4.27551 20.9355 3.96571 20.9885 3.65628C21.0319 3.40353 20.9396 3.7113 20.9187 3.75344C20.3611 4.8793 19.4115 5.78238 18.353 6.44054C18.3293 6.45532 17.8866 6.78306 17.8445 6.56048C17.8092 6.37409 17.8686 6.12299 17.9128 5.94563C17.9946 5.61745 18.1319 5.30857 18.3409 5.04082C18.4918 4.8475 18.7918 4.51032 19.0909 4.60967C19.3969 4.71132 19.4637 5.17389 19.4992 5.42946C19.5179 5.56359 19.5799 5.94485 19.4947 6.09137C19.4371 6.19025 19.4262 5.8713 19.4157 5.75738C19.3905 5.48111 19.3847 5.20258 19.3975 4.92544C19.4026 4.81633 19.4234 4.49629 19.4507 4.60208C19.4847 4.73451 19.4664 4.90431 19.4552 5.03778C19.4505 5.09366 19.313 5.73038 19.2578 5.66326C19.1391 5.51867 19.1043 5.23675 19.0483 5.05904C19.0345 5.01501 19.1392 5.07798 19.1819 5.09547C19.4387 5.20066 19.7136 5.21962 19.9896 5.21692C20.592 5.21105 21.1919 5.12684 21.7795 4.99831C22.1722 4.9124 22.6463 4.81675 23.0046 4.61574C23.3645 4.41384 23.1159 3.82008 22.9317 3.58341C22.9017 3.54481 22.2786 2.98725 22.2941 3.23424C22.331 3.8199 23.0417 4.07739 23.5208 4.1603C23.6016 4.17429 23.9742 4.24336 24.0719 4.16789C24.1595 4.10018 23.8957 4.03161 23.7971 3.98116C23.1049 3.62698 22.3586 3.34364 21.611 3.131C21.5583 3.11602 21.4359 3.0614 21.5032 3.15226C21.6752 3.38467 21.9207 3.58756 22.1545 3.7504C22.7186 4.14342 23.3391 4.43308 23.9793 4.67798C24.1647 4.74893 24.6517 4.97205 24.8992 4.96188C25.0062 4.95748 24.7562 4.80205 24.6761 4.73112C24.3824 4.47114 24.0766 4.22606 23.7728 3.97812C23.4826 3.74127 23.1829 3.50996 22.9075 3.25549C22.7553 3.11493 22.8559 3.13918 22.9894 3.20084C23.8291 3.58861 24.6358 4.18455 25.2757 4.84953C25.398 4.97658 25.5282 5.12172 25.6249 5.27158C25.6424 5.29871 25.5888 5.21795 25.5733 5.1896C25.285 4.66041 24.9734 4.15585 24.541 3.72915C24.2815 3.47314 23.9793 3.27169 23.6756 3.07331C23.5855 3.01443 23.4893 2.89153 23.375 2.87596C23.2348 2.85683 23.1247 2.76781 23.1018 2.63002" stroke="white" stroke-linecap="round"/>
<path d="M16.598 5.96394C16.4307 5.96394 16.2762 6.08632 16.132 6.15523C15.1961 6.6022 14.1992 6.84288 13.1701 6.95377C12.771 6.99677 12.3473 6.9469 11.9525 7.00539C11.8657 7.01825 11.8367 7.25621 11.828 7.31205C11.7977 7.50805 11.8137 7.64479 11.9586 7.77812C12.0328 7.84637 11.972 7.85111 11.9009 7.8434C11.8359 7.83634 11.6236 7.81789 11.6656 7.70525C11.7545 7.46652 12.23 7.19453 12.3928 7.09648C13.3976 6.49141 14.4896 6.05973 15.5854 5.65273C17.489 4.94577 19.5455 4.4232 21.2177 3.21763C21.3845 3.09742 21.7228 2.91334 21.7066 2.662C21.7049 2.63542 21.6653 2.42786 21.699 2.42365C21.7333 2.41935 21.766 2.44119 21.7992 2.45097C22.0246 2.51738 22.2538 2.56811 22.4823 2.62252C22.7632 2.68939 22.9207 2.72575 23.1959 2.80015C23.2203 2.80675 23.7766 2.92188 23.3689 2.93981C22.9509 2.9582 22.493 2.86155 22.0907 2.98536" stroke="white" stroke-linecap="round"/>
<path d="M20.5056 2.52078C20.9951 2.49111 21.5663 2.59697 22.0116 2.80922C22.0347 2.82023 22.2122 2.90657 22.0799 2.89879C21.9366 2.89036 21.7893 2.81946 21.6746 2.73635C21.5428 2.64086 21.9081 2.68772 21.9099 2.68777C22.3289 2.70087 22.7487 2.73364 23.1563 2.83655C23.3144 2.87647 23.5291 2.90244 23.6618 3.00355C23.8573 3.15246 23.9346 3.39937 24.0307 3.61384" stroke="white" stroke-linecap="round"/>
<path d="M19.446 10.794C19.4108 11.0168 19.3361 11.2114 19.2454 11.421C18.7847 12.4844 18.1564 13.4658 17.4128 14.3535C16.4463 15.5071 15.2976 16.5021 14.1918 17.5171C13.3326 18.3058 12.4593 19.0817 11.6122 19.8835C11.5943 19.9004 10.9735 20.4219 11.0855 20.566C11.141 20.6373 11.2478 20.483 11.3166 20.4245C11.6656 20.1277 12.001 19.8152 12.3467 19.5145C13.8372 18.2179 15.3857 16.9942 16.9201 15.7508C17.9876 14.8857 19.1481 14.0292 20.021 12.9544C20.2261 12.7019 20.4817 12.3617 20.5584 12.0318C20.5887 11.9017 20.4758 12.0555 20.4295 12.1035C20.0298 12.5178 19.6529 12.9536 19.2651 13.379C17.4241 15.3979 15.5552 17.3915 13.7243 19.4195C13.3778 19.8033 12.4008 21.0019 12.6817 20.5678C13.2563 19.6798 13.9863 18.8686 14.6934 18.0885C15.8686 16.7921 17.1334 15.5835 18.355 14.332C18.5096 14.1736 18.6638 14.0149 18.8154 13.8537C18.8531 13.8136 18.9733 13.7061 18.9229 13.7283C18.8445 13.7628 18.7924 13.8392 18.7259 13.8931C18.532 14.05 18.34 14.2093 18.1419 14.3606C16.5582 15.5704 14.8772 16.6549 13.2137 17.75C12.4166 18.2747 11.6059 18.8687 10.7577 19.3174C10.5984 19.4017 10.5597 19.3763 10.6646 19.2135C10.8395 18.942 11.3634 18.3189 11.5209 18.1459C12.8305 16.7066 14.3323 15.4778 15.8596 14.28C16.6941 13.6256 17.6968 13.0035 18.3532 12.1483C18.4341 12.0429 18.6754 11.6815 18.6327 11.5177C18.6124 11.4398 18.5468 11.6539 18.5037 11.7219C18.2947 12.0516 18.1441 12.2696 17.9054 12.5997C17.2255 13.5401 16.5199 14.4673 15.7808 15.362C15.5107 15.689 15.2681 15.964 14.989 16.2756C14.9027 16.372 14.8331 16.4877 14.7275 16.5623C14.662 16.6085 14.7992 16.4186 14.8421 16.3509C15.0363 16.044 15.2232 15.7796 15.4476 15.4874C16.1959 14.5129 17.0194 13.5994 17.7406 12.6033C18.0635 12.1573 18.3511 11.7009 18.5682 11.1952C18.6314 11.048 18.6818 10.8907 18.7617 10.751C18.8014 10.6815 18.7874 10.7289 18.7366 10.7796C18.5388 10.9774 18.3326 11.1658 18.1383 11.3672C17.8494 11.6666 17.5358 11.9518 17.2641 12.2665C16.6158 13.0175 15.9491 13.743 15.3759 14.5559C15.1015 14.9452 14.8366 15.341 14.5626 15.7311C14.0991 16.3911 13.5585 16.9454 13.0292 17.5511C12.9666 17.6228 12.9014 17.7016 12.8429 17.7786C12.8046 17.829 12.8805 17.7479 12.8877 17.741C13.4468 17.2038 14.0778 16.7342 14.7221 16.3061C16.466 15.1475 18.3467 14.2406 20.2002 13.2768C20.9497 12.8871 21.7282 12.5048 22.3893 11.9709C22.4699 11.9058 22.4072 11.9713 22.357 12.0372C22.1846 12.2633 22.1413 12.3202 21.9253 12.5692C21.2155 13.3877 20.4589 14.1668 19.7165 14.9554C19.0774 15.6342 18.428 16.3024 17.7818 16.9743C17.6473 17.1141 17.2361 17.4829 17.4235 17.4329C17.5277 17.4051 17.9652 16.8502 17.9699 16.8453C18.8142 15.9616 19.7348 15.159 20.6283 14.3266C20.8973 14.076 21.1942 13.7972 21.4488 13.5241C21.5138 13.4543 21.6173 13.3934 21.6243 13.2983C21.6294 13.2297 21.5138 13.3807 21.4631 13.4273C21.142 13.7226 21.006 13.8597 20.6426 14.1761C19.2392 15.3981 17.7533 16.5188 16.2645 17.6335C15.5779 18.1476 14.8508 18.6346 14.1936 19.1884C14.152 19.2235 14.2594 19.1016 14.2939 19.0595C14.7387 18.5165 15.2383 18.0215 15.7378 17.5296C16.6221 16.6588 17.5083 15.7951 18.3497 14.8819C18.6293 14.5784 18.8947 14.2619 19.1773 13.9612C19.2078 13.9286 19.4221 13.6935 19.2812 13.9576C18.7279 14.9942 17.8719 15.8935 17.0491 16.7163C16.7019 17.0636 16.1894 17.5317 15.7987 17.8628C15.7082 17.9395 15.6147 18.0127 15.5193 18.0832C15.4867 18.1072 15.4551 18.1536 15.4154 18.1459C15.3224 18.1278 15.5132 17.9829 15.573 17.9094C15.7584 17.6813 15.9987 17.4208 16.2 17.2179C16.8281 16.5847 17.5069 16.0082 18.1848 15.4301C18.3073 15.3257 18.4247 15.2153 18.5503 15.1148C18.5711 15.0981 18.5994 15.0693 18.6076 15.1112C18.6175 15.1619 18.6076 15.2239 18.6076 15.276" stroke="white" stroke-linecap="round"/>
<path d="M18.3173 14.8891C17.7526 14.8891 17.181 15.0203 16.6208 15.079C16.2394 15.119 15.8528 15.1692 15.469 15.1793C15.4116 15.1809 15.3616 15.1867 15.3185 15.1435C15.2292 15.0542 15.1825 14.9147 15.1393 14.7996C15.1124 14.7276 15.1093 14.6484 15.0928 14.5739C15.0557 14.4069 14.9388 14.8799 14.8778 15.0396C14.5468 15.9071 14.2128 16.778 13.803 17.6121C13.2936 18.6486 12.6323 19.5799 11.8933 20.464C11.0585 21.4627 10.1745 22.4169 9.35672 23.4305C8.75429 24.1771 8.14431 24.9126 7.52233 25.6429C6.88032 26.3967 6.28341 27.1884 5.62345 27.9269C5.60157 27.9514 5.28693 28.2929 5.21501 28.3604C5.20052 28.374 5.17527 28.4096 5.16485 28.3927C5.15058 28.3695 5.17481 28.3385 5.18635 28.3139C5.23175 28.2169 5.28217 28.1222 5.33504 28.029C6.24803 26.4204 7.50659 25.0385 8.65807 23.6025C9.67546 22.3337 10.6126 21.0292 11.3541 19.579C11.4539 19.3838 11.5415 19.1823 11.6461 18.9896C11.7024 18.8859 11.691 18.9435 11.664 19.0183C11.5909 19.2214 11.5162 19.3534 11.3971 19.5521C10.9405 20.3142 10.3873 21.0205 9.80457 21.6893C8.73885 22.9123 7.55457 24.0114 6.31314 25.0517C6.19605 25.1498 6.0913 25.2665 5.95844 25.3419C5.81605 25.4227 6.09296 25.0414 6.18595 24.9066C7.1648 23.4882 8.40043 22.269 9.53765 20.9817C10.1082 20.3358 10.6531 19.6852 11.0657 18.9269C11.0892 18.8838 11.0255 19.0168 11.0012 19.0595C10.6868 19.6119 10.3047 20.1196 9.89593 20.6055C9.05327 21.607 8.10976 22.5135 7.10314 23.3481C7.0735 23.3727 6.98509 23.4396 7.00282 23.4054C7.0985 23.221 7.218 23.0497 7.33602 22.8788C8.15431 21.6935 9.14335 20.6576 10.0751 19.5647C10.3409 19.2529 11.0687 18.2613 10.8149 18.583C10.2782 19.2634 9.67041 19.8884 9.0486 20.4908C8.81748 20.7148 8.74353 20.7788 8.53805 20.9656C8.5171 20.9846 8.49538 21.0429 8.47535 21.0229C8.45535 21.0029 8.51478 20.9823 8.53447 20.962C8.58883 20.9059 8.64257 20.8491 8.69748 20.7936C9.26622 20.2182 9.86812 19.6883 10.4996 19.1831C10.6092 19.0954 10.7134 18.9999 10.831 18.9234C10.9025 18.8769 10.7634 19.0819 10.711 19.1491C10.0975 19.9355 9.311 20.5904 8.54701 21.2235C7.81178 21.8328 7.10173 22.4317 6.426 23.1045C5.7895 23.7382 5.15914 24.419 4.47696 25.0034C4.14972 25.2837 3.71937 25.5162 3.45228 25.8596C3.36616 25.9704 3.29522 26.1015 3.21582 26.2179C2.99861 26.5365 2.83363 26.8343 2.56016 27.1244C2.13828 27.5719 1.60673 27.9047 1.179 28.3533C1.05207 28.4864 0.933722 28.627 0.804598 28.7581C0.589384 28.9767 1.27104 28.359 1.51578 28.1741C2.91727 27.1152 4.47267 26.292 5.91724 25.2971C6.29683 25.0357 6.7204 24.7222 7.06732 24.4086C7.16983 24.3159 7.41948 24.0923 7.4668 23.9267C7.4771 23.8907 7.40374 23.9683 7.37723 23.9948C6.98076 24.3913 7.3615 24.0281 6.73949 24.6325C5.39808 25.936 4.00407 27.1856 2.60674 28.4285C2.42215 28.5927 2.25088 28.7736 2.05141 28.9193C1.8254 29.0845 2.34433 28.4418 2.50642 28.2135C3.58334 26.6974 4.85347 25.3571 6.19311 24.0718C6.4565 23.8191 6.72253 23.5691 6.99208 23.323C7.01963 23.2979 7.04285 23.2637 7.07806 23.2514C7.19512 23.2104 6.95549 23.4673 6.88638 23.5702C5.88985 25.0553 4.76797 26.4649 3.51319 27.7406C3.28436 27.9733 3.0729 28.2381 2.78946 28.3998C2.77229 28.4096 2.75778 28.3647 2.76438 28.3461C2.83708 28.1408 3.25924 27.4856 3.28747 27.4414C3.72698 26.7537 4.03853 26.2992 4.53249 25.6339C4.96447 25.0522 5.42402 24.4122 5.9459 23.8999C6.04811 23.7995 6.08859 23.8084 6.07488 23.9608C6.05386 24.1944 5.90513 24.8113 5.85633 24.9711C5.42786 26.374 4.69517 27.6731 3.84818 28.8638C3.7979 28.9345 3.63525 29.1355 3.6762 29.0591C3.96064 28.5281 4.35347 28.0277 4.70984 27.5471C5.01055 27.1417 5.44096 26.5896 5.7596 26.1857C5.86564 26.0513 5.97153 25.9167 6.08026 25.7844C6.08932 25.7734 6.33032 25.4407 6.2164 25.7002C6.07281 26.0273 5.8465 26.394 5.65928 26.6765C5.11059 27.5046 4.49422 28.3056 3.81772 29.034C3.69149 29.1699 3.43851 29.4612 3.58484 29.0949C3.82275 28.4994 4.13979 27.9253 4.40888 27.3429C4.49795 27.1502 4.61463 26.9656 4.66326 26.7589C4.70911 26.5641 4.37409 27.0358 4.22975 27.1745C3.45172 27.9222 2.58646 28.597 1.66626 29.1612C1.64752 29.1727 1.35022 29.3989 1.27573 29.3009C1.17521 29.1686 1.18149 28.9041 1.21662 28.751C1.24095 28.6449 1.3297 28.5717 1.35276 28.4679C1.36703 28.4037 1.34895 28.5996 1.34202 28.665C1.30027 29.0586 1.21764 29.4454 1.12347 29.8294C1.05691 30.1008 0.897922 30.4551 0.953283 30.743C0.958595 30.7706 0.95577 30.7982 0.992694 30.7699C1.22519 30.5916 1.4654 30.2621 1.65014 30.0587C1.86852 29.8182 2.63321 28.9773 2.82529 28.7617C3.21972 28.3191 3.67144 27.8641 3.97895 27.3501C3.98607 27.3382 4.09573 27.1246 3.96641 27.2731C3.8842 27.3674 3.59155 27.8116 3.58126 27.8266C2.9072 28.8074 2.19013 29.7578 1.43159 30.6749C1.37767 30.7401 1.21808 30.9364 1.26319 30.8648C1.43792 30.5876 1.69936 30.3145 1.9081 30.073C2.29772 29.6222 2.55688 29.338 2.96502 28.8961C3.2515 28.5859 3.5778 28.1525 3.92163 27.8875C3.98265 27.8405 3.88271 28.0381 3.84639 28.1061C3.54451 28.6708 3.18645 29.2059 2.81096 29.7237C2.48199 30.1773 1.38092 31.4484 1.7612 31.0368C2.58431 30.1459 3.49669 29.3611 4.45367 28.6166C5.00002 28.1915 5.27074 28.0029 5.79184 27.6206C5.85532 27.574 6.26968 27.1991 6.04622 27.5292C5.54727 28.2664 4.98452 28.9616 4.40888 29.6395C4.1854 29.9027 3.75138 30.3978 3.49886 30.6713C3.42553 30.7508 3.35085 30.8291 3.27314 30.9042C3.19226 30.9824 3.12384 31.0451 3.20865 30.897C3.35661 30.6388 3.58378 30.3439 3.75503 30.1267C4.4248 29.2774 5.15498 28.4798 5.87783 27.6761C6.18835 27.3309 6.48718 26.9749 6.80577 26.6371C6.84239 26.5983 6.87581 26.5203 6.92759 26.5332C6.96987 26.5438 6.92141 26.6214 6.90609 26.6622C6.85714 26.7926 6.79682 26.9185 6.73591 27.0438C6.16838 28.2106 5.34937 29.2285 4.4483 30.1554C4.3514 30.2551 4.07339 30.5388 4.1151 30.4062C4.2814 29.8774 4.8622 29.241 5.17918 28.8369C6.20584 27.5282 7.42503 26.403 8.49685 25.1359C9.24301 24.2539 9.87677 23.2825 10.6358 22.4112C11.0472 21.9389 11.5136 21.5151 11.9829 21.1017C12.2334 20.8811 12.4832 20.6661 12.7442 20.4586C12.9017 20.3335 13.139 20.1398 12.9431 20.4998C12.0982 22.0528 10.9229 23.4558 9.81173 24.8206C9.3386 25.4018 9.09779 25.6809 8.64016 26.2305C8.46658 26.4389 8.25994 26.7478 8.05258 26.9452C8.00077 26.9946 8.12862 26.8239 8.17081 26.7661C8.56657 26.2241 9.01205 25.7199 9.45883 25.2201C10.6452 23.893 11.8635 22.5976 13.0255 21.2486C13.1324 21.1245 13.4139 20.7398 13.3694 20.8975C13.3368 21.0134 13.2646 21.1147 13.2028 21.2181C12.7673 21.948 12.2982 22.6237 11.7966 23.3159C11.0161 24.3929 10.4915 25.0647 9.6523 26.0692C9.4184 26.3492 9.17811 26.624 8.93395 26.8951C8.82125 27.0202 8.50659 27.3898 8.55417 27.2283C8.62604 26.9842 8.78372 26.7733 8.91962 26.5583C9.19481 26.1228 9.50506 25.7072 9.82965 25.3079C10.8405 24.0643 11.9553 22.8929 13.1222 21.795C13.223 21.7002 13.3947 21.5372 13.5235 21.4385C13.538 21.4274 13.5557 21.3986 13.5701 21.4098C13.6252 21.4527 13.5286 21.5438 13.4984 21.6069C12.8858 22.886 11.9092 23.9961 10.9797 25.0499C10.4398 25.6621 10.1098 26.0085 9.56094 26.569C9.43096 26.7018 9.29862 26.8322 9.16683 26.9631C9.09315 27.0364 8.92433 27.2836 8.9447 27.1817C8.96113 27.0995 9.05414 27.0547 9.10951 26.9918C9.39046 26.6725 9.68019 26.3618 9.97654 26.0567C10.8868 25.1196 11.8372 24.2196 12.8356 23.3768C13.0779 23.1722 13.345 22.9599 13.5952 22.7605C13.6773 22.6951 13.8531 22.4746 13.8531 22.5796C13.8531 22.8129 13.6574 23.1188 13.5468 23.3069C13.3452 23.6499 13.0897 23.9555 12.8607 24.2796C12.5436 24.7285 12.1795 25.1355 11.793 25.5264C11.4139 25.9099 11.0175 26.2475 10.5999 26.5905C9.56043 27.4444 8.49617 28.2663 7.47934 29.1486C7.30114 29.3033 7.22095 29.3784 7.06373 29.5356C7.02014 29.5792 6.93117 29.7262 6.93117 29.6646C6.93117 29.5156 7.05411 29.3926 7.12822 29.2633C7.72042 28.2303 8.40116 27.2471 9.10951 26.2914C9.81159 25.3441 10.2798 24.7629 11.0299 23.8855C11.2393 23.6405 11.4555 23.4014 11.6712 23.1618C11.7738 23.0478 11.8804 22.9375 11.9847 22.825C12.0166 22.7906 12.0863 22.6747 12.0796 22.7211C12.0725 22.7711 12.0146 22.7983 11.9829 22.8376C11.9083 22.9297 11.8379 23.0253 11.7608 23.1152C10.9814 24.0239 10.1175 24.8395 9.20624 25.616C8.10864 26.5514 7.21253 27.241 6.04085 28.0846C5.04689 28.8002 4.00658 29.5407 2.91844 30.116C2.84412 30.1553 2.76572 30.2113 2.68198 30.2038C2.64568 30.2005 2.66282 30.1275 2.6784 30.0945C2.9968 29.4212 3.55479 28.7452 3.99328 28.1616C4.56556 27.4 4.97884 26.8925 5.60195 26.1767C5.81708 25.9296 6.03496 25.6846 6.26119 25.4476C6.38571 25.3172 6.51276 25.1878 6.6535 25.075C6.70686 25.0323 6.77632 24.956 6.83802 24.9854C6.89369 25.012 6.86029 25.1088 6.85235 25.17C6.83616 25.2946 6.80612 25.4179 6.76636 25.5372C6.51001 26.3063 6.104 27.0279 5.72914 27.7424C5.53387 28.1146 5.26376 28.6104 5.06991 29.0035C5.02723 29.0901 4.90716 29.3479 4.97138 29.2758C5.12883 29.0992 5.24343 28.8885 5.3852 28.699C5.87035 28.0506 6.39153 27.4297 6.924 26.8198C7.11124 26.6054 7.26248 26.3378 7.51158 26.2C7.71612 26.0868 7.50486 26.6745 7.43276 26.8969C7.18499 27.6611 6.79915 28.3767 6.37942 29.0591C6.33236 29.1356 6.30648 29.2477 6.22178 29.2776C6.20765 29.2826 6.215 29.2475 6.21819 29.2328C6.24551 29.1077 6.33796 28.8934 6.37942 28.7993C6.54368 28.4266 7.06085 27.3327 6.97058 27.7299C6.84411 28.2863 5.86727 29.7275 6.16087 29.2382" stroke="white" stroke-linecap="round"/>
<path d="M16.1892 17.4366C16.2259 17.3943 16.577 16.986 16.4275 17.218C15.5226 18.6221 14.4074 19.9155 13.3086 21.1663C12.5531 22.0263 11.7555 22.8834 10.9655 23.7136C10.6307 24.0654 9.57125 25.0618 9.95156 24.7598C10.404 24.4005 10.8237 24.0048 11.2808 23.6491C12.6759 22.5635 14.1396 21.5823 15.6177 20.6145C16.5104 20.0301 17.2405 19.5743 18.1024 18.9843C18.3023 18.8475 18.4982 18.7048 18.6936 18.5616C18.7808 18.4976 19.017 18.2784 18.9515 18.3645C18.8518 18.4957 18.7284 18.6071 18.6147 18.7264C18.054 19.3151 17.4722 19.8818 16.8717 20.43C16.2776 20.9724 15.6494 21.6026 14.9603 22.0333C14.8435 22.1063 15.1296 21.816 15.2165 21.7091C15.5393 21.3117 15.8815 20.9322 16.2179 20.5464C16.4836 20.2418 16.7047 19.9874 16.9523 19.6722C17.0585 19.5371 17.3472 19.1098 17.2497 19.2513C16.7773 19.9362 16.2692 20.582 15.684 21.177C14.6028 22.2764 13.3842 23.226 12.1693 24.1704C11.9984 24.3033 11.5568 24.7528 11.6462 24.5556C11.7424 24.3432 11.9677 24.1078 12.1084 23.9375C12.9883 22.8729 13.9813 21.9014 14.9675 20.937C15.3044 20.6075 15.9998 19.9396 16.3576 19.5862C16.5245 19.4214 16.8766 19.1362 16.9935 18.893C17.02 18.838 17.0685 18.493 16.9201 18.5508C16.7057 18.6344 16.4882 18.9379 16.3522 19.0918C16.0173 19.4711 15.6945 19.8609 15.3616 20.2419C15.2486 20.3712 15.1452 20.5104 15.0176 20.6253C14.8027 20.8187 15.3522 20.1532 15.5318 19.9266C16.2677 18.9978 17.0661 18.128 17.8803 17.2682C17.9361 17.2092 18.1068 17.0371 18.0415 17.0855C17.7514 17.3001 17.4726 17.6598 17.2372 17.9113C16.5702 18.6236 15.9048 19.3367 15.2075 20.0198C14.8062 20.4129 14.3686 20.8938 13.8855 21.1985C13.7581 21.2788 13.7116 21.2823 13.7583 21.1233C13.8964 20.6527 14.2746 20.1823 14.5554 19.8012C14.8972 19.3376 15.3044 18.84 15.6804 18.4039C15.837 18.2224 15.9991 18.0456 16.1605 17.8683C16.3141 17.6997 16.4433 17.4938 16.6424 17.3828C16.7077 17.3465 16.6984 17.5299 16.6836 17.6032C16.5687 18.171 16.3073 18.7036 16.0423 19.2136C15.933 19.424 15.814 19.6293 15.6966 19.8353C15.6097 19.9876 15.516 20.1359 15.4296 20.2885C15.4001 20.3408 15.3234 20.3953 15.349 20.4497C15.3701 20.4944 15.4246 20.3856 15.4583 20.3494C38.9879 -4.89692 -16.0988 54.1609 16.1964 19.5289C17.0832 18.5779 18.0412 17.694 18.8781 16.6967C19.0215 16.5259 19.1497 16.3425 19.2955 16.1736C19.425 16.0236 19.3622 16.2735 19.3528 16.3331C19.28 16.7932 19.1336 17.2375 18.9927 17.6802C18.8528 18.12 19.3458 16.8272 19.5355 16.4065C19.6254 16.2073 19.7584 15.9126 19.8562 15.7061C20.0029 15.3963 19.9399 15.5465 19.815 15.7276C19.2836 16.4975 18.6759 17.209 18.0594 17.9113C17.6759 18.3482 17.1958 18.9863 16.7123 19.357C16.6583 19.3983 16.7755 19.2359 16.8162 19.1814C17.0517 18.8664 17.3111 18.5677 17.5811 18.2821C18.4371 17.3767 19.403 16.5853 20.2807 15.7025C20.8255 15.1546 21.2906 14.5063 21.7336 13.8735C21.8768 13.6689 22.0376 13.404 22.2369 13.2483C22.395 13.1248 22.5726 13.4102 22.6167 13.5206C22.652 13.6087 22.6778 13.7146 22.6687 13.8108C22.6652 13.847 22.6306 13.9581 22.6382 13.8466C22.6539 13.6171 22.7749 13.4091 22.8872 13.2143C23.0824 12.8756 22.7989 13.407 22.7672 13.4561C22.4845 13.8941 22.0693 14.2933 21.8769 14.7817C21.6811 15.2786 21.3339 15.7552 21.3305 16.308C21.3269 16.8962 21.7174 17.4713 22.0184 17.9453C22.603 18.866 23.4344 19.5995 23.7973 20.6503C24.0026 21.2451 24.1537 21.8233 24.1537 22.4525C24.1537 23.2991 24.1609 24.1461 24.1537 24.9927C24.1466 25.8276 24.0158 26.6607 23.9603 27.4935C23.9434 27.7462 23.8453 27.9916 23.7829 28.2351C23.7196 28.4821 23.6711 28.7322 23.6127 28.9803C23.5977 29.0445 23.5828 29.1087 23.5644 29.172C23.5398 29.2563 23.5102 29.3292 23.5339 29.172C23.5576 29.0153 23.7026 28.3185 23.7059 28.3014C23.8967 27.3149 24.05 26.3248 24.1609 25.3259C24.2327 24.6791 24.4422 22.7477 24.2756 23.3768C23.9388 24.6478 23.7736 26.0266 23.8026 27.3394C23.8072 27.545 23.8294 27.75 23.8564 27.9539C23.8757 28.0999 23.8451 28.3315 23.9853 28.3766C24.0076 28.3838 24.0225 28.3438 24.0283 28.3211C24.0825 28.1097 24.201 27.1894 24.2039 27.1639C24.4138 25.3007 24.5685 23.3566 24.3884 21.4833C24.3483 21.0661 24.3981 22.3222 24.3777 22.7409C24.3726 22.8443 24.2864 22.3123 24.2827 22.2841C24.2539 22.0625 24.2647 21.743 24.1215 21.5639" stroke="white" stroke-linecap="round"/>
<path d="M24.2828 22.5635C24.2663 22.192 23.9298 21.7984 23.6092 21.6194C23.2339 21.41 22.9285 21.1576 22.5201 20.9943C21.7492 20.6859 20.9433 20.4475 20.1411 20.2347C19.4738 20.0577 18.7911 20.0659 18.1061 20.0968C17.8254 20.1094 17.5234 20.1388 17.2444 20.0932C17.1282 20.0742 17.3712 19.8823 17.4737 19.8245C18.134 19.4519 18.9196 19.3619 19.661 19.2924C20.3664 19.2263 21.0744 19.2171 21.782 19.1957C21.8699 19.193 21.9732 19.193 21.8071 19.2602C21.2887 19.4699 20.6834 19.4494 20.1411 19.3712C19.8829 19.334 19.6149 19.2636 19.3672 19.1778C19.299 19.1542 19.133 19.1501 19.1702 19.0882C19.2151 19.0133 19.3447 19.0954 19.4317 19.1025C19.6271 19.1186 20.4361 19.1898 20.5388 19.1993C21.4201 19.2803 22.3047 19.3581 23.1793 19.4966C23.481 19.5444 23.3507 19.5807 23.1291 19.6041C22.6086 19.6591 22.0962 19.5844 21.6029 19.4142C21.581 19.4067 21.0872 19.1322 21.3807 19.3569C22.0126 19.8407 24.0594 21.0681 23.4319 20.5786C23.1906 20.3905 20.729 19.4017 20.7663 19.3085C20.7917 19.2449 20.8935 19.3597 20.9562 19.3874C21.2902 19.535 21.3821 19.5748 21.7623 19.7295C22.3978 19.9882 23.054 20.2104 23.6773 20.498C23.6951 20.5062 23.7468 20.5313 23.7275 20.5285C23.6804 20.5216 23.6364 20.5009 23.5913 20.4855C23.3198 20.3927 23.0618 20.2959 22.7941 20.1863C22.0766 19.8926 21.2359 19.5845 20.6516 19.0542C20.2151 18.658 21.3494 18.6347 21.5276 18.5329C21.5745 18.5061 21.4202 18.5429 21.3664 18.5472C21.1602 18.5635 21.0017 18.5744 20.7896 18.583C20.4547 18.5966 20.0705 18.6434 19.7362 18.5902C19.6675 18.5793 19.8381 18.4871 19.9046 18.4666C20.3576 18.3272 20.8437 18.331 21.3109 18.3752C21.4355 18.387 21.8019 18.4356 21.6781 18.4541C21.3139 18.5083 20.9219 18.4758 20.5603 18.4236C20.3152 18.3883 20.0112 18.3416 19.79 18.214C19.6617 18.14 20.0481 18.0511 20.1948 18.0313C21.2014 17.8954 22.296 18.1398 23.19 18.6081C23.23 18.6291 23.1153 18.5568 23.0826 18.5257C22.9645 18.4134 22.855 18.289 22.7601 18.1567C22.5038 17.7994 22.334 17.4043 22.1618 17.003C22.1591 16.9967 22.0045 16.5568 21.9217 16.6627C21.8378 16.7699 21.7996 16.9061 21.739 17.0281C21.5761 17.3558 21.4585 17.5834 21.2733 17.9095C21.0617 18.2817 20.8456 18.6933 20.5656 19.0219C20.4866 19.1147 20.4657 19.1245 20.46 19.0022C20.4536 18.8674 20.4914 18.5054 20.4994 18.4164C20.5613 17.7209 20.6266 17.0257 20.7 16.3312C20.7051 16.2827 20.7647 15.7208 20.7788 15.6075C20.7847 15.5602 20.7831 15.5105 20.8003 15.466C20.8079 15.4463 20.809 15.5076 20.8093 15.5287C20.8155 16.0664 20.738 16.6196 20.6194 17.1428C20.612 17.1753 20.3785 17.7984 20.3793 17.7662C20.3834 17.6072 20.7124 16.2905 20.451 16.3725C20.2764 16.4272 20.173 16.6836 20.1017 16.8239C19.958 17.1065 19.7992 17.4077 19.6968 17.7088C19.6191 17.9375 19.9098 17.2751 20.0049 17.0532C20.0804 16.8771 20.3442 16.388 20.1984 16.5122C20.0245 16.6603 19.9364 17.0794 19.876 17.2789C19.8053 17.5122 19.7475 17.7546 19.7362 17.999C19.7326 18.0788 19.6963 18.2028 19.7112 18.2785C19.7277 18.3631 20.2394 18.1186 20.2522 18.1137" stroke="white" stroke-linecap="round"/>
<path d="M21.9287 15.8564C21.9779 16.0163 22.1775 16.1537 22.3049 16.2434C22.8556 16.631 23.5289 16.8422 24.1375 17.1176C24.3304 17.2049 24.5576 17.2874 24.7376 17.4042C24.9272 17.5272 25.0415 17.8012 25.1353 17.9918C25.6395 19.0162 25.8004 20.0783 25.9432 21.2002C26.1525 22.8439 26.1796 24.4792 26.151 26.1355C26.1445 26.5165 26.18 27.6548 26.1206 27.2784C26.0936 27.1073 26.1174 26.932 26.1134 26.7589C26.1002 26.1925 26.0752 25.3828 26.0453 24.8492C25.9701 23.5059 25.863 22.1607 25.6154 20.8365C25.526 20.3585 25.4125 19.4157 24.9777 19.0505C24.8198 18.9179 24.8685 19.2828 24.8702 19.3246C24.8975 19.9962 25.0265 20.6602 25.2571 21.2915C25.3067 21.4273 25.4624 21.821 25.456 21.6767C25.4417 21.3564 25.2889 20.9487 25.1962 20.6574C24.9685 19.9413 24.6879 19.2471 24.3578 18.5722C24.3024 18.4588 24.0859 18.0148 23.9548 17.8592C23.9403 17.842 23.9008 17.8134 23.8921 17.8341C23.8696 17.8875 23.8891 17.9501 23.8921 18.0079C23.916 18.4752 24.0008 18.9439 24.1321 19.3927C24.2528 19.8049 24.4307 20.4813 24.7699 20.7935C24.8326 20.8512 24.7715 20.6201 24.7448 20.5392C24.5885 20.0663 24.3551 19.614 24.0927 19.192C24.0259 19.0846 23.9575 18.9778 23.8813 18.8767C23.8206 18.7961 23.6549 18.5826 23.6485 18.6833C23.6348 18.8954 23.8196 19.0745 23.9351 19.2529C24.1562 19.5946 24.456 20.0003 24.7233 20.3063C24.8327 20.4316 24.9501 20.5502 25.0726 20.6628C25.1503 20.7341 25.3474 20.9094 25.3557 20.8043C25.3693 20.6305 25.2265 20.4797 25.1443 20.326C24.9507 19.9644 24.8203 19.746 24.6051 19.3891C24.4338 19.1051 24.2616 18.819 24.082 18.54C24.0054 18.4211 23.9062 18.3178 23.8455 18.1888C23.7105 17.902 23.6577 17.5386 23.4192 17.3093C23.1533 17.0536 22.0209 17.7779 22.3766 17.6801C22.7515 17.577 22.8597 16.7711 22.9032 16.4691C22.9403 16.2123 22.8865 16.1552 23.154 16.2183C23.6006 16.3236 24.0652 16.306 24.5101 16.4225C24.8604 16.5143 25.1074 16.7657 25.3055 17.0585C25.6459 17.5617 26.0863 17.9643 26.3893 18.497C26.6174 18.8979 26.6804 19.3402 26.7637 19.7886C26.8917 20.4776 26.9871 21.1844 26.9697 21.8863C26.9378 23.1762 26.7217 24.49 26.4233 25.7449C26.177 26.7808 25.7303 27.7967 25.3144 28.7724C25.1624 29.1292 25.0219 29.5439 24.8075 29.8723C24.6504 30.113 24.7942 29.2945 24.8397 29.0107C25.1189 27.2692 25.4567 25.5271 25.4363 23.7565C25.4337 23.5339 25.4352 23.3 25.413 23.0776C25.3917 22.8645 25.3806 23.5047 25.3539 23.7171C25.2554 24.4977 25.1239 25.2739 25.0153 26.0531C24.9279 26.6802 24.8812 27.0508 24.8147 27.6653C24.7881 27.9103 24.7399 28.1554 24.7502 28.4016C24.764 28.733 24.8968 27.7545 24.9598 27.4289C25.2832 25.7568 25.5274 24.0738 25.6799 22.3771C25.7127 22.0122 25.736 21.6465 25.7587 21.2808C25.7731 21.0493 25.7842 20.8176 25.791 20.5857C25.7931 20.5111 25.8085 20.4329 25.7856 20.3618C25.7164 20.1472 25.7083 20.8063 25.6799 21.03C25.572 21.8813 25.5119 22.433 25.413 23.3176C25.3085 24.2512 25.2101 25.1855 25.0923 26.1176C25.0863 26.1654 25.0812 26.2134 25.0726 26.2609C25.0401 26.4398 25.1182 25.9001 25.1425 25.7199C25.272 24.7573 25.4128 23.7954 25.5079 22.8286C25.5644 22.2541 25.6175 21.5768 25.6118 20.9906C25.6108 20.8802 25.588 20.3869 25.5223 20.2203C25.4527 20.0441 25.2459 20.4944 25.1747 20.6699C24.7535 21.7089 24.3843 22.7796 24.1053 23.8658C24.0667 24.0158 24.0334 24.1671 24.0031 24.319C23.9889 24.3906 23.9437 24.595 23.9888 24.5375C24.0859 24.414 24.1281 24.2558 24.1895 24.1112C24.3689 23.6879 24.5678 23.1755 24.7197 22.7533C25.0193 21.9209 25.2796 21.0798 25.5151 20.2274C25.5887 19.961 25.6554 19.6012 25.6942 20.0877C25.7438 20.7087 25.7547 21.3307 25.8214 21.9508C25.8546 22.2591 25.888 22.5368 25.9683 22.8321C25.9862 22.8978 26.0109 23.0371 26.0722 23.0077C26.1771 22.9574 26.2473 22.4773 26.2567 22.4309C26.3893 21.7752 26.4448 21.1065 26.4681 20.4388C26.4718 20.3342 26.4734 20.0233 26.4502 20.1253C26.3369 20.624 26.3051 21.1509 26.2585 21.6588C26.2486 21.7668 26.239 21.8748 26.2316 21.983C26.2275 22.0438 26.1957 22.2088 26.2388 22.1657C26.4035 22.001 26.4236 21.476 26.4466 21.2772C26.5524 20.3631 26.3861 19.4723 26.4036 18.5615C26.4091 18.2787 26.4629 17.9929 26.5004 17.7123C26.5255 17.5241 26.7399 17.7232 26.8031 17.7876C27.2069 18.1991 27.5602 18.6328 27.7579 19.1777C27.9107 19.5986 28.0034 20.0383 28.1001 20.4747C28.2621 21.2062 28.4302 21.9339 28.5999 22.6637C28.8008 23.5279 28.7557 24.4029 28.6178 25.2756C28.5218 25.8831 28.3748 26.4794 28.195 27.067C28.1171 27.3218 28.0405 27.6981 27.8833 27.9287C27.8567 27.9678 27.8346 27.9305 27.8296 27.8982C27.7304 27.2596 27.8075 26.5627 27.7651 25.9205C27.6864 24.7298 27.5226 23.5563 27.2724 22.3897C27.1649 21.8882 27.0675 21.5112 26.9285 21.039C26.9271 21.0343 26.8609 20.6738 26.8318 20.8921C26.7475 21.5242 26.7779 22.2196 26.7906 22.8501C26.8103 23.8333 26.8528 24.8254 27.0163 25.7969C27.0381 25.9266 27.0618 26.0569 27.1023 26.182C27.1598 26.3604 27.2035 26.1701 27.2133 26.1211C27.4631 24.8763 27.5114 23.55 27.5573 22.2876C27.5972 21.1903 27.6067 20.0821 27.525 18.986C27.5173 18.8823 27.5233 18.7743 27.4892 18.6761C27.4777 18.6429 27.4576 18.74 27.4516 18.7746C27.3987 19.0816 27.3471 19.8098 27.3334 20.0196C27.2617 21.113 27.2233 22.2106 27.2993 23.3051C27.3125 23.4955 27.3799 24.1555 27.4641 24.4121C27.535 24.6279 27.5988 24.3604 27.6074 24.3226C27.895 23.0615 27.7388 21.6684 27.4337 20.4263C27.1667 19.3392 27.878 22.6221 28.1699 23.7028C28.2082 23.8446 28.248 23.986 28.2882 24.1273C28.3153 24.2227 28.2968 24.4398 28.3903 24.4068C28.5073 24.3655 28.5326 23.2734 28.5372 23.2191C28.5829 22.6761 28.6201 22.1305 28.6214 21.5853C28.622 21.329 28.6012 21.1599 28.5067 20.9333C28.4246 20.7362 28.3917 20.5236 28.3276 20.3206C28.3161 20.2842 28.2316 20.0282 28.3276 20.1271C28.6809 20.4914 28.7347 21.1188 28.8937 21.5782C28.9959 21.8735 29.1428 22.1512 29.2466 22.447C29.5541 23.3235 29.4302 24.4188 29.2233 25.3078C29.0515 26.046 28.8835 26.7629 28.5945 27.4683C28.112 28.6458 27.0125 29.3772 25.9074 29.9099C25.7501 29.9858 23.9221 30.7374 23.8885 30.5136C23.8451 30.2242 24.3681 29.6593 24.4976 29.5051C25.1218 28.7617 25.8937 28.1629 26.5219 27.4253C26.53 27.4157 26.9146 26.9712 26.855 26.852C26.8109 26.7637 26.7376 27.0111 26.6867 27.0957C26.4431 27.5001 26.3145 27.7278 26.0453 28.149C25.6009 28.8445 25.1317 29.518 24.6068 30.1554C24.5065 30.2773 24.4035 30.3971 24.2969 30.5136C24.2624 30.5514 24.2352 30.6175 24.1841 30.6175C24.1464 30.6175 24.2099 30.5462 24.2289 30.5136C24.2973 30.3961 24.371 30.2817 24.4456 30.1679C25.2106 29.0011 26.131 27.9514 26.9464 26.8216C27.1798 26.4982 26.922 26.9479 26.9124 26.9667C26.5709 27.6326 26.1868 28.2758 25.8053 28.9193C25.754 29.0059 25.7019 29.0921 25.6512 29.1791C25.6225 29.2283 25.5429 29.3596 25.6297 29.24C25.9657 28.7771 26.2742 28.2924 26.5899 27.8158C26.6737 27.6893 26.7554 27.5615 26.8407 27.436C26.8983 27.3513 26.9894 27.1148 27.0414 27.2031C27.1049 27.3112 27.0203 27.4538 26.9912 27.5758C26.9239 27.858 26.8325 28.1333 26.7368 28.407C26.6138 28.7588 26.4335 29.117 26.3552 29.4836C26.3135 29.6791 26.5827 29.1535 26.6759 28.9766C26.9193 28.5146 27.1531 28.0498 27.3262 27.556C27.3794 27.4041 27.407 27.2439 27.4605 27.0921C27.4839 27.026 27.4538 27.2325 27.4426 27.3017C27.3793 27.6929 27.2803 28.0756 27.1882 28.4607C27.1876 28.4636 26.9112 29.3338 27.1882 28.9695C27.6696 28.3366 28.1336 27.7088 28.7306 27.1763C28.822 27.0948 28.8996 27.0425 28.9384 27.2031C29.0263 27.5664 28.9073 27.9893 28.7396 28.3138C28.6628 28.4624 28.6321 28.629 28.5515 28.776C28.3648 29.1165 28.1649 29.4483 27.8618 29.7003C27.202 30.2491 26.2544 30.4791 25.4381 30.6623C24.3503 30.9065 23.2009 30.9762 22.0935 31.0761C21.0579 31.1696 20.0215 31.2499 18.9872 31.3592C18.56 31.4043 18.221 31.4448 17.8103 31.4971C17.7151 31.5092 17.5738 31.5704 17.667 31.481C18.8893 30.3076 20.5497 29.789 22.158 29.4066C22.2741 29.3789 22.3914 29.3562 22.5073 29.3277C22.6294 29.2977 22.6255 29.2775 22.4894 29.3331C22.077 29.5018 21.677 29.7362 21.2874 29.9476C20.5622 30.341 19.8409 30.7436 19.1395 31.1782C18.9697 31.2835 18.4495 31.5663 18.6415 31.5114C18.8635 31.448 19.0256 31.255 19.2219 31.1335C20.2375 30.5046 21.2918 29.9501 22.373 29.4424C22.9931 29.1512 23.6226 28.8854 24.2575 28.6291C24.4377 28.5564 24.6084 28.4368 24.8021 28.4213C24.8189 28.4199 24.792 28.454 24.7824 28.4679C24.6786 28.6181 24.4817 28.828 24.3776 28.9372C23.6764 29.6723 22.9024 30.3294 22.1204 30.9758C21.9853 31.0875 21.8496 31.1984 21.7137 31.309C21.6472 31.3632 21.5806 31.4173 21.5131 31.4702C21.4922 31.4866 21.4528 31.543 21.4486 31.5168C21.4434 31.4839 21.4876 31.4628 21.5077 31.4362C21.6763 31.2133 21.7687 31.0951 21.9735 30.8612C22.4447 30.3229 22.9499 29.8192 23.4657 29.3242C23.5962 29.199 23.7244 29.0713 23.8598 28.9515C23.9055 28.9111 23.7847 29.0481 23.7416 29.0913C22.7437 30.0892 21.3871 30.5105 20.0925 30.9722C19.9528 31.0221 19.8125 31.1072 19.9868 30.9328C20.6006 30.3191 21.3103 29.8027 22.0684 29.3815C22.2972 29.2544 22.5341 29.142 22.7725 29.0339C23.0126 28.9251 23.2589 28.7542 23.5213 28.7796C23.5439 28.7818 23.5313 28.8309 23.5159 28.8476C23.4094 28.9632 22.8843 29.3374 22.8316 29.3743C22.1444 29.8551 21.4342 30.3036 20.7303 30.7591C20.4816 30.92 20.2504 31.1158 19.9779 31.232C19.874 31.2763 20.111 31.0483 20.1911 30.9687C20.7042 30.4585 21.248 29.9841 21.7818 29.4961C22.3746 28.9542 23.0587 28.4028 23.2257 27.5722C23.2589 27.4067 23.2769 26.9513 23.1576 27.0706C23.0048 27.2234 22.9277 27.4366 22.8172 27.6223C22.6138 27.9645 22.4679 28.2004 22.2565 28.5395C22.1051 28.7825 21.913 29.0357 21.7854 29.2955C21.6186 29.635 22.2485 28.6971 22.4912 28.407C22.8887 27.9317 23.303 27.4704 23.7326 27.024C23.8179 26.9355 24.0244 26.6479 23.9978 26.7678C23.9684 26.9002 23.8164 26.9697 23.7183 27.0634C22.4954 28.2318 20.9535 29.0368 19.41 29.6968C19.1669 29.8007 18.9148 29.9222 18.6576 29.9888C18.1674 30.1156 17.6492 30.0972 17.1475 30.0909C16.189 30.0788 15.2308 30.0807 14.2723 30.0747C13.7776 30.0717 13.2787 30.075 12.7854 30.03C12.4816 30.0022 12.2084 29.9084 11.9148 29.8365C11.3218 29.6913 10.7198 29.6161 10.1395 29.4245C9.86406 29.3335 9.58229 29.2656 9.29938 29.2023C9.2298 29.1868 8.71835 29.1657 9.01992 29.0375C9.59649 28.7924 10.2084 28.6885 10.8185 28.5682C10.8408 28.5638 10.7746 28.5559 10.7522 28.5521C10.3667 28.4867 9.98905 28.3627 9.61825 28.2422C9.39194 28.1686 9.16868 28.0912 8.94826 28.0021C8.61984 27.8693 9.57621 28.3372 9.91203 28.45C11.677 29.0425 13.5966 29.129 15.4349 29.3277C15.6295 29.3488 15.5056 29.3604 15.4259 29.3671C14.9234 29.4097 14.4074 29.396 13.9051 29.394C12.863 29.39 11.8202 29.3751 10.7791 29.3277C10.4692 29.3136 10.1555 29.3192 9.85113 29.2597C9.77211 29.2442 9.99705 29.1844 10.0768 29.1737C11.4357 28.9907 12.8354 28.9987 14.2006 29.025C16.669 29.0725 19.1361 29.249 21.5883 29.532C21.7139 29.5464 21.8396 29.5594 21.9645 29.5785C22.0468 29.5912 21.9544 29.6118 21.9395 29.6144C21.1176 29.7547 20.2404 29.7178 19.4136 29.6968C18.4228 29.6715 17.4342 29.6008 16.4453 29.5391C16.2176 29.5249 15.9844 29.5443 15.7627 29.4908C15.6892 29.473 15.8967 29.416 15.9705 29.3994C16.668 29.2424 17.3847 29.1724 18.0987 29.1522C18.5388 29.1397 19.1393 29.1556 19.5927 29.2023C19.7039 29.2138 20.0094 29.252 19.9116 29.3062C19.543 29.5107 18.7592 29.4937 18.3961 29.5123C17.1151 29.5778 15.8324 29.5289 14.5517 29.4854C14.1984 29.4734 13.9025 29.4386 13.5772 29.5606" stroke="white" stroke-linecap="round"/>
<path d="M8.38574 28.8835C8.41078 28.8397 8.55302 28.8638 8.55413 28.8638C9.81527 28.836 11.074 28.8074 12.3358 28.8405C13.5742 28.8731 14.8626 28.8972 16.0834 29.1433C16.1728 29.1613 16.2578 29.1646 16.1479 29.1988C15.9528 29.2596 15.7484 29.282 15.5459 29.3027C14.551 29.4046 13.548 29.413 12.5489 29.4245C11.8277 29.4328 11.0703 29.3725 10.3491 29.4389C9.54514 29.5128 11.9637 29.4639 12.7711 29.4639" stroke="white" stroke-linecap="round"/>
<path d="M21.9287 16.4047C22.4565 16.5294 22.7368 17.1934 22.9641 17.6228C23.0053 17.7006 23.4007 18.5983 23.5589 18.5687C23.6216 18.5569 23.1209 17.9582 23.0752 17.9202C22.9651 17.8286 22.8454 17.7152 22.7223 17.6407C22.6234 17.5809 22.6736 17.8691 22.6775 17.9847C22.712 18.99 22.5477 19.951 22.3766 20.9369C22.3464 21.1107 22.2391 21.3182 22.4661 21.2593C22.6328 21.2161 23.1327 20.8386 23.2508 21.0157" stroke="white" stroke-linecap="round"/>
<path d="M24.702 26.5296C24.6396 26.5452 24.5931 26.5915 24.5408 26.6263" stroke="white" stroke-linecap="round"/>
<path d="M25.1532 31.1085C23.7473 31.2799 22.3248 31.2341 20.9112 31.2374C19.7597 31.2402 18.6087 31.2485 17.4574 31.2715C16.5083 31.2905 15.5548 31.3478 14.6055 31.3413C14.2296 31.3388 14.6208 31.1849 14.756 31.13C15.451 30.8477 16.1817 30.6954 16.9253 30.6123C17.3989 30.5593 18.0932 30.4604 18.5788 30.5818C18.6502 30.5996 18.5012 30.7219 18.4319 30.7466C18.066 30.877 17.4953 30.9818 17.1421 31.0261C16.0546 31.1623 14.9595 31.1701 13.8674 31.0977C13.6268 31.0818 13.3869 31.0567 13.1473 31.0296C13.0225 31.0155 12.8984 30.9957 12.7747 30.9741C12.7274 30.9659 12.6414 30.9876 12.6349 30.9401C12.623 30.852 15.9095 30.6929 16.2428 30.6929C17.9841 30.6929 12.7599 30.6944 11.0191 30.7359C10.6132 30.7455 10.1835 30.7453 9.78304 30.8308C9.74886 30.8381 9.70822 30.8374 9.68272 30.8613C9.66528 30.8776 9.73081 30.8617 9.75438 30.8577C10.73 30.6898 8.83422 30.9786 10.5515 30.7036C11.2742 30.5879 12.0002 30.5233 12.7317 30.503C12.9545 30.4968 13.3906 30.5135 12.7478 30.5585C11.9065 30.6174 11.0618 30.5952 10.2201 30.5567C9.64401 30.5304 9.03194 30.4843 8.45382 30.4421C8.24846 30.427 8.03982 30.4378 7.83758 30.3991C7.6593 30.3649 8.16898 30.2494 8.34097 30.1913C8.80028 30.0361 9.26568 29.9111 9.74005 29.8115C9.81673 29.7954 9.89408 29.7827 9.97114 29.7685C10.0693 29.7505 10.083 29.7532 9.98368 29.756C9.35678 29.7731 8.72983 29.7812 8.10271 29.7846C7.71766 29.7867 7.31033 29.8107 6.92397 29.7793C6.70781 29.7617 7.35869 29.7769 7.57425 29.8007C8.36917 29.8888 9.15293 30.0514 9.92993 30.2379C10.1594 30.2929 10.5659 30.4013 10.822 30.4779C10.8724 30.493 11.0073 30.4993 10.9689 30.5352C10.9544 30.5489 10.9297 30.5424 10.9098 30.5442C10.751 30.5586 10.6288 30.5561 10.4584 30.5531C9.494 30.5366 8.53103 30.471 7.56708 30.4403C7.46924 30.4372 6.70633 30.3376 6.55853 30.5066C6.46722 30.6109 6.6398 30.9292 6.65526 31.0368C6.75172 31.7082 5.51098 32.0846 5.06451 32.2299C4.66904 32.3586 4.23234 32.4694 3.81411 32.4914C3.47965 32.509 3.49153 32.2733 3.58123 32.006C3.82508 31.2793 4.57356 30.6181 5.27589 30.3131C5.49276 30.2189 5.98213 30.1263 5.82047 30.5603C5.67815 30.9424 5.25993 31.1786 4.9194 31.3431C4.57785 31.5082 4.29142 31.5964 3.92876 31.6925C3.83336 31.7177 3.51752 31.8009 3.37343 31.7928C3.12631 31.7789 3.65414 31.3809 3.83203 31.2088C4.78336 30.2884 5.77865 29.4166 6.76633 28.536C6.87993 28.4347 6.99353 28.3334 7.1049 28.2297C7.42048 27.9358 7.19312 28.1339 7.16044 28.167C6.54542 28.7891 5.95392 29.4308 5.32247 30.0372C4.99637 30.3504 4.6534 30.6488 4.3372 30.9723C4.33359 30.976 4.16754 31.1655 4.31212 30.9992C4.59721 30.6713 4.88924 30.3496 5.17557 30.0229C5.20365 29.9908 6.05079 29.1273 5.96379 29.009C5.94857 28.9883 5.91201 29.0185 5.89034 29.0322C5.76069 29.1147 5.48509 29.3799 5.41562 29.4425C4.7662 30.0276 4.08151 30.5704 3.42896 31.1515C3.16445 31.387 2.92483 31.6399 2.67837 31.8931C2.66457 31.9073 2.31609 32.3123 2.381 32.0758C2.50915 31.609 2.75068 31.1124 2.66762 30.614C2.65282 30.5253 2.59706 30.3836 2.52072 30.5245C2.29664 30.9382 2.15335 31.4161 1.96718 31.8483C1.86667 32.0817 1.7627 32.3136 1.67519 32.5523C1.63774 32.6544 1.63351 32.678 1.62144 32.5416C1.60034 32.303 1.57951 32.0685 1.5265 31.834C1.48817 31.6644 1.38836 31.1861 1.33124 31.3503C1.24014 31.6122 1.34548 31.9652 1.29183 32.2442C1.26401 32.3889 1.24804 32.3611 1.16285 32.2836C1.05497 32.1855 1.11113 32.601 1.1091 32.6383C1.09685 32.8638 0.984007 33.0982 1.01774 33.3208C1.06383 33.625 1.28111 33.5257 1.56054 33.534C2.12426 33.5508 2.70263 33.6256 3.26594 33.5716C3.7684 33.5235 4.27288 33.5159 4.7743 33.4659C5.04949 33.4385 5.32339 33.3872 5.60013 33.3764C5.71957 33.3717 5.84599 33.4044 5.62342 33.4444C5.1555 33.5286 4.6609 33.5014 4.1921 33.4516C3.59379 33.388 2.92752 33.2927 2.36666 33.0557C2.06919 32.93 2.90477 32.6491 2.95424 32.6365C3.02882 32.6176 3.10428 32.6021 3.17996 32.5882C3.24121 32.5769 3.32505 32.5271 3.36626 32.5738C3.39293 32.6041 2.89948 32.7621 2.89333 32.7637C2.79321 32.7907 2.48868 32.8425 2.59238 32.8425C3.03888 32.8425 3.48515 32.8126 3.93234 32.8139C5.88805 32.8195 11.7519 33.0383 9.79737 32.9715C9.13056 32.9487 8.46401 32.909 7.79817 32.8676C7.41941 32.8441 6.57297 32.7868 6.15726 32.7566C6.02703 32.7471 5.89674 32.7382 5.76673 32.7261C5.71754 32.7215 5.65771 32.7381 5.61984 32.7064C5.5973 32.6875 5.67244 32.6795 5.70045 32.6706C5.93824 32.5947 6.26321 32.5271 6.48687 32.4825C7.52889 32.2746 8.58285 32.1409 9.63077 31.9683C9.73074 31.9519 9.83516 31.9504 9.92993 31.9146C10.1524 31.8305 9.45464 31.9321 9.21696 31.9397C8.021 31.9778 6.82773 31.9618 5.63238 31.9092C5.17346 31.889 3.80805 31.8347 4.26196 31.7641C5.50531 31.5708 6.80953 31.5772 8.0633 31.5169C8.6454 31.4889 10.3924 31.4217 9.80991 31.4399C9.08781 31.4624 8.36687 31.4864 7.64411 31.4847C6.74711 31.4824 5.82811 31.4888 4.93552 31.379C4.0794 31.2737 5.3881 31.0886 5.4192 31.0852C6.34558 30.9828 7.28312 30.9831 8.21378 30.9795C8.48846 30.9784 8.76315 30.9801 9.03782 30.9831C9.24175 30.9853 9.83982 30.946 9.64869 31.0171C9.57017 31.0463 9.48316 31.0441 9.39968 31.0511C8.98184 31.0863 8.2887 31.1137 7.90208 31.1264C7.30511 31.1459 6.64948 31.1573 6.04977 31.1658C5.81332 31.1691 5.1068 31.2098 5.34038 31.173C5.89525 31.0853 6.6126 31.1256 7.14969 31.1192C8.79044 31.0998 10.4911 31.0588 12.1208 31.2876C12.6346 31.3597 12.3211 31.4921 12.0438 31.5814C11.0485 31.902 9.98663 32.0562 8.96258 32.255C8.72548 32.301 8.02837 32.4671 8.24602 32.3624C8.77244 32.1092 9.40232 31.973 9.96576 31.8609C10.9989 31.6553 12.048 31.5363 13.0971 31.4524C13.2629 31.4392 13.4288 31.4234 13.5951 31.4202C13.6439 31.4192 13.7107 31.401 13.7402 31.4399C13.7612 31.4675 13.6949 31.4957 13.6632 31.5097C13.5353 31.5664 13.4016 31.61 13.2673 31.6495C12.243 31.9506 11.1775 32.1061 10.1234 32.2585C9.49174 32.3499 8.70966 32.4448 8.05972 32.5201C7.56427 32.5775 7.82284 32.5403 8.02747 32.5237C8.73324 32.4663 9.44858 32.4116 10.1557 32.4861C10.3203 32.5034 10.7243 32.5471 10.616 32.6724C10.5124 32.7922 9.941 32.8644 9.90665 32.8694C8.62753 33.057 7.32686 32.8434 6.0856 33.2438C5.97677 33.2789 5.70847 33.3378 5.65029 33.4444C5.61688 33.5057 6.2633 33.5305 6.30057 33.534C6.68324 33.5703 7.06402 33.6015 7.44706 33.6308C7.76793 33.6553 8.07917 33.7313 8.40367 33.7185C8.91491 33.6985 9.4262 33.6398 9.9371 33.6093C10.4963 33.5758 11.0127 33.3969 11.5673 33.3477C13.1791 33.2047 14.7459 32.8641 16.3378 32.5738C16.4468 32.5539 17.1408 32.3548 17.3141 32.4198C17.4283 32.4626 17.0849 32.5049 16.9665 32.5344C16.499 32.6511 16.0123 32.7454 15.537 32.8139C14.5059 32.9626 13.4672 33.0343 12.4271 33.079C12.2982 33.0845 11.693 33.111 11.4634 33.0987C11.2691 33.0883 11.436 33.047 11.5404 33.0109C13.4795 32.3406 15.6178 32.1984 17.6491 32.0615C17.8478 32.0481 18.0467 32.0363 18.2456 32.0257C18.5362 32.0101 18.308 32.0313 18.2026 32.04C17.0805 32.1326 15.9558 32.1802 14.8312 32.2299C14.3186 32.2525 13.7825 32.312 13.2673 32.3051C13.0633 32.3024 13.6278 32.1121 13.8173 32.0364C14.7228 31.6748 15.6452 31.3717 16.5814 31.0995C16.87 31.0156 17.5693 30.8203 17.9375 30.7394C18.2017 30.6814 18.0386 30.7484 17.8784 30.8272C15.8915 31.8045 13.7376 32.3708 11.655 33.0987C11.1634 33.2706 9.72256 33.8767 10.2022 33.6737C10.7189 33.4552 11.3876 33.4982 11.9345 33.4982C12.5854 33.4982 13.2147 33.63 13.8603 33.6487C14.1737 33.6577 14.4882 33.6471 14.8007 33.6236C14.8635 33.6189 14.9261 33.6116 14.9888 33.6057C15.0213 33.6026 15.1339 33.5907 14.9315 33.62C14.0638 33.7456 11.44 33.8299 12.3017 33.6684C12.9172 33.553 13.5713 33.5431 14.1935 33.5233C15.3084 33.4877 16.4245 33.4946 17.5398 33.4946C17.9864 33.4946 18.4908 33.4586 18.9442 33.4946C19.0237 33.5009 18.7868 33.5202 18.7078 33.5304C18.3834 33.5723 18.1282 33.601 17.7942 33.6272C17.3708 33.6604 16.948 33.6704 16.5241 33.6881C16.448 33.6912 16.4064 33.7111 16.4363 33.6917C17.1766 33.2104 18.079 33.0725 18.9156 32.8372C19.2299 32.7488 19.6002 32.6596 19.8865 32.4878C19.9245 32.4651 19.7974 32.4724 19.7539 32.4807C19.1245 32.6002 19.5729 32.531 18.7723 32.6634C18.157 32.7651 17.5341 32.876 16.9128 32.9357C16.7706 32.9493 16.6277 32.9794 16.8017 32.8569C17.0036 32.7147 17.3922 32.5257 17.5792 32.4359C18.2755 32.1015 18.9904 31.8086 19.711 31.5312C19.9586 31.4359 20.6827 31.1307 20.4687 31.2876C20.0685 31.5811 19.5629 31.7999 19.1341 32.04C18.4655 32.4143 17.782 32.7764 17.1385 33.1937C17.0364 33.2599 17.341 33.0584 17.4448 32.9948C18.3485 32.4416 19.3268 32.0478 20.3254 31.7014C20.5598 31.6201 20.7958 31.5432 21.033 31.4703C21.1596 31.4315 21.2869 31.3943 21.4164 31.3664C21.4596 31.3571 21.5283 31.3201 21.5489 31.3593C21.5698 31.399 21.5006 31.4355 21.4701 31.4685C21.3999 31.5446 21.3268 31.6183 21.248 31.6853C20.9263 31.9586 20.5739 32.2048 20.2161 32.4269C19.6521 32.7771 19.0571 33.0694 18.4677 33.3728C18.3243 33.4466 17.9215 33.7067 18.0378 33.5949C18.2047 33.4344 18.5062 33.2797 18.6934 33.1811C19.453 32.781 20.2652 32.5264 21.0742 32.2496C21.1768 32.2145 21.2785 32.177 21.3805 32.1403C21.4973 32.0983 21.4814 32.0985 21.3877 32.1475C20.6958 32.5092 20.0277 32.9155 19.3491 33.3011C19.0159 33.4904 18.6694 33.6665 18.3423 33.8672C18.3218 33.8798 18.6556 33.6696 18.6988 33.6415C18.9321 33.4899 19.1697 33.3398 19.4207 33.2187C19.4299 33.2143 19.6611 33.0915 19.5694 33.2205C19.403 33.4548 19.1759 33.6133 19.0374 33.8708C19.008 33.9254 18.9215 34.062 18.9819 34.0481C19.1554 34.0085 19.3299 33.8943 19.4996 33.8386C20.0846 33.6463 20.6467 33.6267 21.0957 33.1668C21.4841 32.7689 21.8972 32.3896 22.3174 32.0257C22.3735 31.9771 22.4305 31.9297 22.4876 31.8824C22.5004 31.8718 22.5397 31.8412 22.527 31.8519C22.4988 31.8758 22.4699 31.8988 22.441 31.9218C21.8353 32.4039 21.2226 32.8773 20.6246 33.3692C20.5006 33.4711 20.1356 33.7747 20.2806 33.706C20.7108 33.5022 21.1183 33.2305 21.5346 33.0002C21.8697 32.8148 22.2182 32.6415 22.5342 32.4234C22.5837 32.3892 22.7057 32.2565 22.6703 32.3051C22.5924 32.4122 22.5033 32.5107 22.4195 32.6132C22.0751 33.035 21.7261 33.4528 21.3859 33.878C21.3299 33.948 21.2754 34.0193 21.2193 34.0893C21.1999 34.1137 21.2514 34.0359 21.2695 34.0105C21.4465 33.7613 21.6264 33.5141 21.8015 33.2635C22.0275 32.9401 22.2348 32.573 22.5181 32.2944C22.6993 32.1161 22.5962 32.4053 22.5736 32.4807C22.4655 32.8406 22.3315 33.1937 22.2028 33.5466C22.1561 33.6746 22.0451 33.889 22.0398 34.0392C22.0362 34.1402 22.2231 33.9463 22.2941 33.8744C22.5018 33.6641 22.6884 33.4326 22.8799 33.208C22.9468 33.1296 23.1162 32.8704 23.2293 32.8139C23.3357 32.7607 23.1555 33.0403 23.111 33.1507C23.0099 33.4015 22.8922 33.6514 22.8029 33.9066C22.6487 34.3473 23.2349 33.0669 23.5481 32.7207C23.6163 32.6454 23.5932 32.9223 23.5839 33.0235C23.5635 33.2466 23.5076 33.4629 23.4836 33.6845C23.4704 33.8073 23.5919 33.6351 23.6019 33.6236C23.8337 33.357 24.0598 33.0896 24.3059 32.8354C24.6279 32.5027 24.9626 32.1815 25.2965 31.8609C25.4417 31.7214 25.6243 31.5325 25.4255 31.8465C25.2562 32.1139 25.0674 32.3681 24.863 32.6097C24.8226 32.6574 24.7811 32.7044 24.7376 32.7494C24.7168 32.7709 24.7624 32.6943 24.7806 32.6706C25.2548 32.0515 25.7932 31.4647 26.3105 30.881C26.5973 30.5573 26.9896 30.3227 27.3029 30.0229C27.3421 29.9854 27.4426 29.8822 27.4426 29.9853C27.4426 30.2386 27.4374 30.5451 27.2993 30.7681C27.1823 30.9571 27.0222 31.0871 26.83 31.1945C26.3074 31.4863 25.8128 31.8048 25.3807 32.2227C25.0295 32.5625 24.6744 32.8965 24.3005 33.2116C24.151 33.3376 23.9986 33.4619 23.8365 33.5716C23.5918 33.7373 23.8108 33.4348 23.8509 33.3656C24.1623 32.8277 24.5164 32.3226 24.854 31.8017C24.8808 31.7605 25.0269 31.5865 24.8738 31.6351C24.34 31.8046 23.812 31.9531 23.2615 32.0651C23.2315 32.0712 22.4375 32.2823 22.3497 32.212C22.2706 32.1487 22.5227 32.1054 22.6148 32.0633C22.8509 31.9553 22.9766 31.9049 23.2239 31.8179C23.3112 31.7871 23.6764 31.5857 23.7667 31.7211" stroke="white" stroke-linecap="round"/>
</svg>
